<?xml version="1.0" encoding="UTF-8"?>
<svg version="1.1" xmlns="http://www.w3.org/2000/svg" width="2000" height="464">
<path d="M0 0 C4.003961 1.33465367 4.29446562 2.89105635 6.22265625 6.58984375 C7.14618896 8.34119629 7.14618896 8.34119629 8.08837891 10.12792969 C8.74643364 11.39777901 9.40447368 12.66763595 10.0625 13.9375 C11.08332073 15.88094676 12.10759724 17.82254694 13.13195801 19.76412964 C13.81203287 21.05384334 14.49098906 22.34414754 15.16882324 23.63504028 C17.74992929 28.54787054 20.40567289 33.41265292 23.125 38.25 C26.98074365 45.13254681 30.75150368 52.05848064 34.5 59 C38.23635487 65.91535889 41.98564092 72.82175957 45.8125 79.6875 C46.20083008 80.38423828 46.58916016 81.08097656 46.98925781 81.79882812 C47.3962793 82.52908203 47.80330078 83.25933594 48.22265625 84.01171875 C51.74556534 90.3335075 55.2505696 96.6651924 58.75 103 C59.09159149 103.61834717 59.43318298 104.23669434 59.78512573 104.8737793 C65.30359834 114.86962585 70.73717255 124.90855429 76.13623047 134.96948242 C80.11319668 142.37355405 84.15700506 149.73603051 88.25390625 157.07421875 C96.99155031 172.72654517 105.63405409 188.43383621 114.1875 204.1875 C114.70352783 205.1357666 115.21955566 206.0840332 115.7512207 207.06103516 C116.48344849 208.41334229 116.48344849 208.41334229 117.23046875 209.79296875 C117.64707764 210.5614917 118.06368652 211.33001465 118.49291992 212.12182617 C120.72432285 216.38328885 122.85885779 220.69263138 125 225 C118.36555451 225.07660942 111.7312248 225.12883271 105.09643555 225.16479492 C102.8434625 225.17980076 100.59051825 225.20021191 98.33764648 225.22631836 C95.08309786 225.26306443 91.82893834 225.27980894 88.57421875 225.29296875 C87.08446785 225.31619453 87.08446785 225.31619453 85.56462097 225.33988953 C76.87402561 225.34194045 68.2405325 223.91193981 60.75 219.25 C60.00234375 218.80140625 59.2546875 218.3528125 58.484375 217.890625 C52.28356569 213.17177011 47.97374117 208.00119429 44.375 201.125 C43.96169434 200.35961914 43.54838867 199.59423828 43.12255859 198.80566406 C38.98994728 191.10667768 34.99229399 183.33361889 30.98266602 175.57006836 C25.85268435 165.65230615 20.51969075 155.85122041 15.12231445 146.0769043 C14.75195068 145.39152588 14.38158691 144.70614746 14 144 C13.65153519 143.38226212 13.30307037 142.76452423 12.94404602 142.12806702 C11.92721699 139.83593265 11.75718757 138.36436428 11.77294922 135.87402344 C11.77317581 134.67323151 11.77317581 134.67323151 11.77340698 133.44818115 C11.78372955 132.59387512 11.79405212 131.73956909 11.8046875 130.859375 C11.8075174 129.97719299 11.81034729 129.09501099 11.81326294 128.18609619 C11.82444039 125.37392501 11.84954049 122.5620746 11.875 119.75 C11.88503295 117.84115044 11.89415825 115.93229588 11.90234375 114.0234375 C11.92266854 109.34873592 11.96182166 104.67472619 12 100 C1.11 99.505 1.11 99.505 -10 99 C-9.814375 101.60003906 -9.62875 104.20007813 -9.4375 106.87890625 C-8.10399341 130.93883032 -10.94984486 147.32347251 -23.89208984 167.63330078 C-27.04046248 172.66179958 -29.78053899 177.88839413 -32.5625 183.125 C-33.52547374 184.87414595 -34.49145067 186.6216431 -35.4609375 188.3671875 C-37.01700354 191.18276248 -38.53128531 194.00883585 -39.9765625 196.8828125 C-46.41835401 209.56049351 -54.57078376 218.54352591 -68.04296875 223.421875 C-72.04103067 224.6029392 -75.80871686 225.12451526 -79.97387695 225.11352539 C-80.93449539 225.11344986 -81.89511383 225.11337433 -82.88484192 225.11329651 C-83.9089769 225.10813522 -84.93311188 225.10297394 -85.98828125 225.09765625 C-87.04661667 225.0962413 -88.10495209 225.09482635 -89.19535828 225.09336853 C-92.56776789 225.08778159 -95.94011054 225.07523144 -99.3125 225.0625 C-101.60221258 225.05748331 -103.89192621 225.0529207 -106.18164062 225.04882812 C-111.78778317 225.03781643 -117.3938868 225.02109126 -123 225 C-118.5407328 215.94120588 -113.99999166 206.99070825 -108.9375 198.25 C-103.97390007 189.57836797 -99.18884634 180.82240283 -94.5 172 C-89.3317144 162.27853505 -84.01941093 152.65255545 -78.5625 143.08984375 C-74.82729112 136.52325431 -71.27401662 129.88136103 -67.79418945 123.17675781 C-64.62269487 117.10074863 -61.27434635 111.13854343 -57.875 105.1875 C-52.69089311 96.10424906 -47.71228074 86.92589934 -42.8125 77.6875 C-38.16995776 68.93483151 -33.50087112 60.20398313 -28.65551758 51.5612793 C-25.20959568 45.40676621 -21.85124614 39.20649622 -18.5 33 C-14.47114686 25.54365929 -10.42377242 18.09877002 -6.3125 10.6875 C-5.90257812 9.94693359 -5.49265625 9.20636719 -5.0703125 8.44335938 C-3.46401651 5.55696061 -1.83335223 2.75002834 0 0 Z " fill="#EB0001" transform="translate(271,120)"/>
<path d="M0 0 C4.003961 1.33465367 4.29446562 2.89105635 6.22265625 6.58984375 C6.83834473 7.75741211 7.4540332 8.92498047 8.08837891 10.12792969 C8.74643364 11.39777901 9.40447368 12.66763595 10.0625 13.9375 C11.08332073 15.88094676 12.10759724 17.82254694 13.13195801 19.76412964 C13.81203287 21.05384334 14.49098906 22.34414754 15.16882324 23.63504028 C17.74992929 28.54787054 20.40567289 33.41265292 23.125 38.25 C26.98074365 45.13254681 30.75150368 52.05848064 34.5 59 C38.23635487 65.91535889 41.98564092 72.82175957 45.8125 79.6875 C46.20083008 80.38423828 46.58916016 81.08097656 46.98925781 81.79882812 C47.3962793 82.52908203 47.80330078 83.25933594 48.22265625 84.01171875 C51.74556534 90.3335075 55.2505696 96.6651924 58.75 103 C59.09159149 103.61834717 59.43318298 104.23669434 59.78512573 104.8737793 C65.30359834 114.86962585 70.73717255 124.90855429 76.13623047 134.96948242 C80.11319668 142.37355405 84.15700506 149.73603051 88.25390625 157.07421875 C96.99155031 172.72654517 105.63405409 188.43383621 114.1875 204.1875 C114.70352783 205.1357666 115.21955566 206.0840332 115.7512207 207.06103516 C116.48344849 208.41334229 116.48344849 208.41334229 117.23046875 209.79296875 C117.85538208 210.94575317 117.85538208 210.94575317 118.49291992 212.12182617 C120.72432285 216.38328885 122.85885779 220.69263138 125 225 C118.36555451 225.07660942 111.7312248 225.12883271 105.09643555 225.16479492 C102.8434625 225.17980076 100.59051825 225.20021191 98.33764648 225.22631836 C95.08309786 225.26306443 91.82893834 225.27980894 88.57421875 225.29296875 C87.08446785 225.31619453 87.08446785 225.31619453 85.56462097 225.33988953 C76.87402561 225.34194045 68.2405325 223.91193981 60.75 219.25 C60.00234375 218.80140625 59.2546875 218.3528125 58.484375 217.890625 C52.28356569 213.17177011 47.97374117 208.00119429 44.375 201.125 C43.7550415 199.97692871 43.7550415 199.97692871 43.12255859 198.80566406 C38.98994728 191.10667768 34.99229399 183.33361889 30.98266602 175.57006836 C25.85268435 165.65230615 20.51969075 155.85122041 15.12231445 146.0769043 C14.75195068 145.39152588 14.38158691 144.70614746 14 144 C13.47730278 143.07339317 13.47730278 143.07339317 12.94404602 142.12806702 C11.92721699 139.83593265 11.75718757 138.36436428 11.77294922 135.87402344 C11.77310028 135.07349548 11.77325134 134.27296753 11.77340698 133.44818115 C11.78372955 132.59387512 11.79405212 131.73956909 11.8046875 130.859375 C11.8075174 129.97719299 11.81034729 129.09501099 11.81326294 128.18609619 C11.82444039 125.37392501 11.84954049 122.5620746 11.875 119.75 C11.88503295 117.84115044 11.89415825 115.93229588 11.90234375 114.0234375 C11.92437176 109.34883511 11.95888489 104.67447191 12 100 C8.04 99.67 4.08 99.34 0 99 C2.31944788 95.52082818 4.26369964 94.70570234 8 93 C7.96519531 92.11248047 7.96519531 92.11248047 7.9296875 91.20703125 C7.82588536 86.66198041 7.86291643 83.14059941 10 79 C10.515625 79.165 11.03125 79.33 11.5625 79.5 C16.08882088 80.42847608 19.81131722 80.4195351 24.1875 78.875 C27.61234369 76.59177088 29.15913392 74.68173216 31 71 C31.47290668 67.14918846 31.35025658 64.8111205 29.8125 61.25 C27.20241188 58.00989061 24.94028934 56.29397047 20.75048828 55.65917969 C19.94853027 55.58086914 19.14657227 55.50255859 18.3203125 55.421875 C17.51094238 55.3403418 16.70157227 55.25880859 15.86767578 55.17480469 C15.25134277 55.11711914 14.63500977 55.05943359 14 55 C13.85304688 53.83726562 13.70609375 52.67453125 13.5546875 51.4765625 C11.4739053 36.19657255 7.70199062 21.98584487 0.1015625 8.48046875 C-1.10895844 5.75465033 -1.29858025 3.94976698 -1 1 C-0.67 0.67 -0.34 0.34 0 0 Z " fill="#FB2426" transform="translate(271,120)"/>
<path d="M0 0 C10.23 0 20.46 0 31 0 C35.23321154 6.04744506 39.29641726 11.94422367 43.0625 18.25 C47.26492075 25.20422592 51.56472348 32.08913677 55.9375 38.9375 C56.52466797 39.85708496 57.11183594 40.77666992 57.71679688 41.72412109 C58.89669517 43.5715251 60.07670747 45.4188563 61.25683594 47.26611328 C64.03792609 51.62782862 66.80136349 56.00063468 69.5625 60.375 C70.03872803 61.129021 70.51495605 61.88304199 71.00561523 62.65991211 C74.01713959 67.43177284 77.00929246 72.21486794 80 77 C80.33 51.59 80.66 26.18 81 0 C89.25 0 97.5 0 106 0 C106 35.31 106 70.62 106 107 C95.44 107 84.88 107 74 107 C64.77692101 96.03012575 64.77692101 96.03012575 62.7421875 91.0859375 C60.25873889 85.44012464 57.27179708 80.44649909 53.875 75.3125 C52.89075963 73.76019749 51.91027031 72.2055101 50.93359375 70.6484375 C48.95116848 67.50490582 46.96381356 64.36457013 44.97265625 61.2265625 C44.46428223 60.42436279 43.9559082 59.62216309 43.43212891 58.7956543 C42.49673761 57.31983847 41.56037154 55.8446395 40.62255859 54.37036133 C35.30739189 45.97702822 30.18272024 37.48081495 25 29 C24.67 54.74 24.34 80.48 24 107 C16.08 107 8.16 107 0 107 C0 71.69 0 36.38 0 0 Z " fill="#151515" transform="translate(589,179)"/>
<path d="M0 0 C7.38060922 7.0884601 8.56768198 14.9268198 9.5625 24.875 C1.9725 24.875 -5.6175 24.875 -13.4375 24.875 C-14.7575 22.235 -16.0775 19.595 -17.4375 16.875 C-22.11250046 11.9402773 -28.27235636 10.8527603 -34.83984375 10.57421875 C-36.35144734 10.55515526 -37.86331594 10.55153876 -39.375 10.5625 C-40.55860107 10.56878418 -40.55860107 10.56878418 -41.76611328 10.57519531 C-48.70257679 10.70993959 -54.09820492 11.75739824 -60 15.5 C-62.16544506 19.07769184 -62.40964632 22.81485949 -61.4375 26.875 C-55.08354354 34.33944356 -44.55781228 34.22924849 -35.39257812 35.00976562 C-32.8017083 35.21126328 -30.21055839 35.4091919 -27.61914062 35.60351562 C-15.50040821 36.6468502 -2.21209076 39.02112395 6.15625 48.72265625 C12.25789926 57.64454456 12.3505358 67.46650022 10.5625 77.875 C8.15080491 85.73734228 3.35927637 91.34717717 -3.4375 95.875 C-21.23480233 105.15131276 -47.61819355 105.74247891 -66.6875 99.875 C-74.72714134 96.81993629 -81.60340459 92.72691602 -85.8125 85 C-88.24286219 79.47253909 -89.4375 73.89799095 -89.4375 67.875 C-81.8475 67.875 -74.2575 67.875 -66.4375 67.875 C-65.1175 70.515 -63.7975 73.155 -62.4375 75.875 C-55.87042394 81.54656569 -47.89818377 82.24913993 -39.5625 82.1875 C-38.38167847 82.18012817 -38.38167847 82.18012817 -37.17700195 82.17260742 C-29.69384226 82.02218828 -23.68439679 80.95301394 -17.3125 76.875 C-14.5004921 72.37578736 -14.87694406 68.04813055 -15.4375 62.875 C-15.7675 61.885 -16.0975 60.895 -16.4375 59.875 C-24.27327444 56.35623227 -33.44145489 56.08695118 -41.875 55.375 C-71.04724932 52.90458474 -71.04724932 52.90458474 -81.3125 42.125 C-87.58970526 34.30398092 -88.50946905 25.6894722 -87.4375 15.875 C-85.28955617 7.46799404 -81.16590687 1.45866946 -73.875 -3.3125 C-54.02801845 -14.59456391 -18.1513025 -14.20092522 0 0 Z " fill="#151515" transform="translate(1208.4375,186.125)"/>
<path d="M0 0 C7.20089642 6.90232266 8.84380312 15.78450622 10.0625 25.3125 C2.4725 25.3125 -5.1175 25.3125 -12.9375 25.3125 C-14.2575 22.6725 -15.5775 20.0325 -16.9375 17.3125 C-23.3888847 11.86466403 -30.60612603 10.94129297 -38.75 11 C-39.54027588 11.00418945 -40.33055176 11.00837891 -41.14477539 11.01269531 C-46.91723067 11.12408006 -52.80553515 11.40474825 -57.9375 14.3125 C-60.54844497 17.07702996 -61.36851557 19.02559405 -61.375 22.8125 C-61.26026726 25.98851078 -61.10234345 27.07439279 -59.25 29.75 C-54.3637629 33.05151155 -49.52512075 33.76278529 -43.75 34.3125 C-42.9647998 34.39516113 -42.17959961 34.47782227 -41.37060547 34.56298828 C-37.3084193 34.98918221 -33.24382151 35.37657775 -29.17578125 35.7421875 C-16.95321866 36.88765145 -4.31250749 38.57016172 5.0625 47.3125 C11.66726189 56.5623344 11.97429892 66.30978682 11.0625 77.3125 C10.28048796 80.81742142 9.11279147 83.38003565 7.0625 86.3125 C6.57652344 87.01632812 6.09054687 87.72015625 5.58984375 88.4453125 C-2.21185131 98.44181066 -14.50721463 101.49813526 -26.625 103 C-44.42251612 104.3712372 -64.85233099 104.78653879 -79.4375 93 C-85.18039339 87.49540094 -87.43018393 80.97469004 -88.9375 73.3125 C-88.9375 71.6625 -88.9375 70.0125 -88.9375 68.3125 C-81.3475 68.3125 -73.7575 68.3125 -65.9375 68.3125 C-64.6175 70.9525 -63.2975 73.5925 -61.9375 76.3125 C-55.32582523 81.89569203 -47.95070715 82.68147362 -39.625 82.625 C-38.78702881 82.62081055 -37.94905762 82.61662109 -37.08569336 82.61230469 C-29.81531422 82.47964126 -23.20439638 81.94195318 -17.375 77.25 C-14.72279891 73.67529419 -14.53440693 70.9415431 -14.59765625 66.5703125 C-14.80786868 64.0323926 -14.80786868 64.0323926 -17 61.375 C-22.38130829 57.5966346 -28.43935624 56.98822656 -34.85546875 56.41796875 C-36.37311966 56.26569764 -37.89069568 56.11267868 -39.40820312 55.95898438 C-41.75921721 55.727373 -44.110313 55.50132654 -46.46313477 55.28881836 C-59.87551055 54.05950348 -72.53578515 51.93757052 -81.9375 41.3125 C-87.69795026 33.30161145 -87.637926 24.83237452 -86.9375 15.3125 C-86.08996394 11.91751271 -84.83432543 9.24124618 -82.9375 6.3125 C-82.54820312 5.68988281 -82.15890625 5.06726563 -81.7578125 4.42578125 C-76.40311215 -2.87752307 -66.96804157 -6.86446548 -58.21630859 -8.34375 C-39.20771024 -11.21112802 -16.07927528 -12.28568003 0 0 Z " fill="#151515" transform="translate(910.9375,185.6875)"/>
<path d="M0 0 C11.50875 -0.061875 23.0175 -0.12375 34.875 -0.1875 C40.29848877 -0.22846802 40.29848877 -0.22846802 45.83154297 -0.27026367 C50.29321289 -0.28381348 50.29321289 -0.28381348 52.39089966 -0.28633118 C53.83632184 -0.29089699 55.28173357 -0.30136198 56.7270813 -0.31672668 C67.8255418 -0.42867081 78.22217073 -0.1786573 87.2421875 7.125 C93.32065197 13.60869544 95.33396916 21.94181685 95.21875 30.59765625 C94.62745858 37.09130312 92.10520897 42.95645755 88 48 C86.06399976 49.52691911 84.13162489 50.74040348 82 52 C82.66386719 52.42410156 83.32773438 52.84820312 84.01171875 53.28515625 C90.85505349 57.83072896 95.99047585 61.84990569 98.3125 69.9375 C100.14489193 79.1170788 98.66768876 87.12456882 94.1875 95.3125 C88.78893226 101.94502608 82.44457311 105.68043131 74 107 C71.54770017 107.08646579 69.09322444 107.11770566 66.6394043 107.11352539 C65.53824768 107.11370619 65.53824768 107.11370619 64.41484547 107.11389065 C62.05127183 107.11314747 59.68777819 107.10554649 57.32421875 107.09765625 C55.85990436 107.09618499 54.39558944 107.09516541 52.93127441 107.09460449 C47.51667489 107.089373 42.10208665 107.07541173 36.6875 107.0625 C24.580625 107.041875 12.47375 107.02125 0 107 C0 71.69 0 36.38 0 0 Z M19 15 C19 25.23 19 35.46 19 46 C24.81710453 46.06915976 30.63276193 46.12880637 36.44995117 46.16479492 C38.42558649 46.17980956 40.40118889 46.20022751 42.37670898 46.22631836 C45.22908695 46.26302572 48.08102129 46.27979993 50.93359375 46.29296875 C51.80584091 46.30845261 52.67808807 46.32393646 53.57676697 46.33988953 C60.89081548 46.34186207 67.32942767 45.28111386 73 40.4375 C76.7598559 35.85517563 76.47808735 31.7547551 76 26 C74.25894517 20.7768355 71.78084962 18.63434571 67 16 C64.11227206 15.09559586 61.52473568 14.87780248 58.50683594 14.88647461 C57.62622498 14.88655014 56.74561401 14.88662567 55.83831787 14.88670349 C54.42561615 14.89444542 54.42561615 14.89444542 52.984375 14.90234375 C52.01340881 14.9037587 51.04244263 14.90517365 50.04205322 14.90663147 C46.94467065 14.91222337 43.84736068 14.92477441 40.75 14.9375 C38.64843854 14.94251605 36.54687596 14.94707877 34.4453125 14.95117188 C29.2968246 14.96133872 24.14849347 14.9809158 19 15 Z M19 60 C19 70.56 19 81.12 19 92 C25.5111377 92.09221123 32.01997776 92.17173664 38.53125 92.21972656 C40.74259145 92.23974747 42.95388058 92.26697259 45.16503906 92.30175781 C48.35755378 92.35069627 51.54936396 92.37306467 54.7421875 92.390625 C55.71864227 92.41127014 56.69509705 92.43191528 57.70114136 92.45318604 C64.33793634 92.45531866 70.22723662 91.45982162 76 88 C79.35871693 83.89696483 80.72090364 79.30056034 80.3671875 74.015625 C79.65078201 70.08301612 78.54712742 67.111591 76 64 C69.24784234 59.95319269 62.42940319 59.44684453 54.7421875 59.609375 C53.71312286 59.61503479 52.68405823 59.62069458 51.62380981 59.62652588 C48.37371026 59.64871297 45.12475989 59.69887585 41.875 59.75 C39.65626605 59.77008784 37.43751462 59.78833458 35.21875 59.8046875 C29.81171337 59.84509884 24.40712553 59.92342387 19 60 Z " fill="#F80000" transform="translate(1650,179)"/>
<path d="M0 0 C8.91 0 17.82 0 27 0 C41.03826461 31.66239029 54.96707339 63.36783346 68.5 95.25 C68.96341797 96.33998291 69.42683594 97.42996582 69.90429688 98.55297852 C70.52401367 100.01948853 70.52401367 100.01948853 71.15625 101.515625 C71.51525391 102.36415039 71.87425781 103.21267578 72.24414062 104.08691406 C73 106 73 106 73 107 C64.42 107 55.84 107 47 107 C42 95 42 95 42 93 C23.19 93 4.38 93 -15 93 C-15.99 95.97 -16.98 98.94 -18 102 C-18.66 103.65 -19.32 105.3 -20 107 C-28.58 107 -37.16 107 -46 107 C-42.62811791 96.88435374 -42.62811791 96.88435374 -40.5390625 92.26953125 C-39.8426062 90.71927246 -39.8426062 90.71927246 -39.13208008 89.13769531 C-38.63474365 88.04038086 -38.13740723 86.94306641 -37.625 85.8125 C-36.53655495 83.38724878 -35.44911619 80.96157444 -34.36328125 78.53515625 C-34.08419418 77.91232758 -33.80510712 77.2894989 -33.51756287 76.64779663 C-30.56067812 70.0391041 -27.68271346 63.39673923 -24.8125 56.75 C-23.74103639 54.27076792 -22.66947095 51.79158028 -21.59765625 49.3125 C-21.31984314 48.66981674 -21.04203003 48.02713348 -20.75579834 47.36497498 C-17.15580146 39.04135154 -13.53374929 30.72732145 -9.91073608 22.41369629 C-9.1393672 20.64353299 -8.36822721 18.87326992 -7.59732056 17.10290527 C-6.51856128 14.62565251 -5.43908171 12.14871495 -4.359375 9.671875 C-3.87125587 8.55063232 -3.87125587 8.55063232 -3.37327576 7.40673828 C-1.11468799 2.22937599 -1.11468799 2.22937599 0 0 Z M13 28 C10.28902925 34.2274563 7.58369514 40.45733834 4.88232422 46.68896484 C3.96208202 48.80997522 3.0405359 50.93042035 2.11767578 53.05029297 C0.79379088 56.09195763 -0.52543923 59.13560354 -1.84375 62.1796875 C-2.46715271 63.60787308 -2.46715271 63.60787308 -3.10314941 65.06491089 C-3.4835437 65.94567291 -3.86393799 66.82643494 -4.25585938 67.73388672 C-4.59339233 68.51110077 -4.93092529 69.28831482 -5.27868652 70.08908081 C-6.11771602 71.97143511 -6.11771602 71.97143511 -6 74 C6.87 74 19.74 74 33 74 C30.78393347 67.18041677 30.78393347 67.18041677 28.19067383 60.58178711 C27.87056839 59.84169907 27.55046295 59.10161102 27.22065735 58.33909607 C26.88616074 57.5762178 26.55166412 56.81333954 26.20703125 56.02734375 C25.85613937 55.21882462 25.5052475 54.41030548 25.14372253 53.57728577 C24.03687574 51.02912408 22.92478979 48.48328976 21.8125 45.9375 C21.05498888 44.19611561 20.29782424 42.45458045 19.54101562 40.71289062 C17.69800667 36.47350899 15.85029978 32.23620429 14 28 C13.67 28 13.34 28 13 28 Z " fill="#151515" transform="translate(508,179)"/>
<path d="M0 0 C8.91 0 17.82 0 27 0 C32.62148003 11.24296005 32.62148003 11.24296005 34.5234375 15.67578125 C34.97589844 16.72523926 35.42835938 17.77469727 35.89453125 18.85595703 C36.62736328 20.5669458 36.62736328 20.5669458 37.375 22.3125 C38.20222034 24.2345821 39.03056059 26.15617931 39.85894775 28.07775879 C40.48145806 29.52187634 41.10363761 30.96613651 41.7255249 32.41052246 C44.7323525 39.39059966 47.75977675 46.36167636 50.7890625 53.33203125 C51.55239395 55.08882957 51.55239395 55.08882957 52.33114624 56.88111877 C54.39830535 61.63850738 56.46556238 66.39585302 58.53387451 71.15274048 C60.00259256 74.53114898 61.47015259 77.9100585 62.9375 81.2890625 C63.37357574 82.29133377 63.80965149 83.29360504 64.25894165 84.32624817 C65.5126494 87.21468066 66.75905694 90.10606117 68 93 C68.70600342 94.64630402 68.70600342 94.64630402 69.42626953 96.3258667 C69.88501465 97.40861877 70.34375977 98.49137085 70.81640625 99.60693359 C71.44397827 101.08424454 71.44397827 101.08424454 72.08422852 102.59140015 C73 105 73 105 73 107 C64.75 107 56.5 107 48 107 C43 97 43 97 42 94 C23.52 94 5.04 94 -14 94 C-15.98 98.29 -17.96 102.58 -20 107 C-28.58 107 -37.16 107 -46 107 C-39.92339595 92.20052884 -33.63436771 77.51603462 -27.1875 62.875 C-26.79996552 61.99487244 -26.41243103 61.11474487 -26.01315308 60.20794678 C-25.23070587 58.43114424 -24.44824031 56.65434978 -23.66575623 54.87756348 C-23.28105667 54.00402222 -22.89635712 53.13048096 -22.5 52.23046875 C-22.11751602 51.36208374 -21.73503204 50.49369873 -21.34095764 49.59899902 C-17.76384344 41.47305765 -14.21752385 33.33399287 -10.6875 25.1875 C-9.92505981 23.43058838 -9.92505981 23.43058838 -9.1472168 21.63818359 C-8.66937744 20.5342627 -8.19153809 19.4303418 -7.69921875 18.29296875 C-7.29533936 17.3599292 -6.89145996 16.42688965 -6.4753418 15.46557617 C-4.28622118 10.32333438 -2.14954584 5.15891001 0 0 Z M13 28 C10.29161594 34.38932733 7.58599235 40.77981826 4.88232422 47.17114258 C3.96141729 49.34719587 3.03986863 51.52297769 2.11767578 53.69848633 C0.7955282 56.81781733 -0.52434067 59.93810372 -1.84375 63.05859375 C-2.46715271 64.52733192 -2.46715271 64.52733192 -3.10314941 66.02574158 C-3.67374084 67.37702904 -3.67374084 67.37702904 -4.25585938 68.75561523 C-4.59339233 69.55281479 -4.93092529 70.35001434 -5.27868652 71.17137146 C-6.06115675 72.82741563 -6.06115675 72.82741563 -6 74 C7.2 74 20.4 74 34 74 C31.14011286 67.1121028 28.27694547 60.22598444 25.39892578 53.34570312 C24.48945339 51.17058801 23.58149197 48.99484029 22.67529297 46.81835938 C21.45704499 43.89680725 20.22986299 40.97917818 19 38.0625 C18.62689697 37.16378174 18.25379395 36.26506348 17.86938477 35.33911133 C17.52061279 34.51693115 17.17184082 33.69475098 16.8125 32.84765625 C16.50957031 32.12586182 16.20664062 31.40406738 15.89453125 30.66040039 C15.10439452 28.81248303 15.10439452 28.81248303 13 28 Z " fill="#151515" transform="translate(748,179)"/>
<path d="M0 0 C1.12591553 0.00523682 2.25183105 0.01047363 3.41186523 0.01586914 C4.62680664 0.0190918 5.84174805 0.02231445 7.09350586 0.02563477 C8.37290039 0.03401367 9.65229492 0.04239258 10.97045898 0.05102539 C12.2537207 0.05553711 13.53698242 0.06004883 14.85913086 0.06469727 C18.04211921 0.07652994 21.22501661 0.09301471 24.40795898 0.11352539 C24.95601196 1.39755249 24.95601196 1.39755249 25.51513672 2.70751953 C32.94076116 20.09798621 40.40938846 37.46897488 47.97045898 54.80102539 C48.32227234 55.6076059 48.67408569 56.4141864 49.03656006 57.24520874 C52.8794826 66.05338468 56.73263532 74.8570287 60.59545898 83.65649414 C61.25621016 85.16274934 61.91693665 86.66901536 62.57763672 88.17529297 C63.81452034 90.99511921 65.05393759 93.81381232 66.29492188 96.63183594 C66.84440163 97.88350894 67.39380419 99.13521584 67.94311523 100.38696289 C68.42143799 101.47412598 68.89976074 102.56128906 69.39257812 103.68139648 C70.40795898 106.11352539 70.40795898 106.11352539 70.40795898 107.11352539 C61.82795898 107.11352539 53.24795898 107.11352539 44.40795898 107.11352539 C42.42795898 102.82352539 40.44795898 98.53352539 38.40795898 94.11352539 C19.92795898 94.11352539 1.44795898 94.11352539 -17.59204102 94.11352539 C-19.57204102 98.40352539 -21.55204102 102.69352539 -23.59204102 107.11352539 C-31.84204102 107.11352539 -40.09204102 107.11352539 -48.59204102 107.11352539 C-47.89807884 103.6437145 -47.40081323 101.33959646 -46.0324707 98.25830078 C-45.71363419 97.53350525 -45.39479767 96.80870972 -45.06629944 96.06195068 C-44.54536964 94.89832001 -44.54536964 94.89832001 -44.01391602 93.71118164 C-43.65112045 92.8897467 -43.28832489 92.06831177 -42.91453552 91.22198486 C-42.13437954 89.45704488 -41.35194955 87.69310867 -40.56747437 85.93008423 C-38.91199645 82.20953623 -37.26736214 78.48422831 -35.62199402 74.75920105 C-34.79120676 72.87874531 -33.95983535 70.99854754 -33.12788391 69.11860657 C-29.64076123 61.23719837 -26.19840419 53.33724047 -22.77954102 45.42602539 C-22.27229492 44.25410645 -21.76504883 43.0821875 -21.24243164 41.87475586 C-18.77997839 36.18328105 -16.32273427 30.48958806 -13.86933899 24.79420471 C-12.65477917 21.97580793 -11.43843166 19.1581846 -10.22183228 16.34066772 C-9.35928706 14.34100733 -8.49943574 12.34020286 -7.63964844 10.33935547 C-7.12378174 9.14463623 -6.60791504 7.94991699 -6.07641602 6.71899414 C-5.39144043 5.12800903 -5.39144043 5.12800903 -4.69262695 3.50488281 C-3.14291019 0.13765218 -3.14291019 0.13765218 0 0 Z M10.40795898 28.11352539 C6.00528025 36.45827475 2.31629599 45.09339543 -1.37792969 53.76660156 C-2.41625744 56.20352347 -3.45987126 58.63813304 -4.50415039 61.07250977 C-5.16526529 62.61860223 -5.82608383 64.16482145 -6.48657227 65.71118164 C-6.79899368 66.44023209 -7.1114151 67.16928253 -7.43330383 67.92042542 C-8.93599969 70.91673452 -8.93599969 70.91673452 -9.59204102 74.11352539 C3.60795898 74.11352539 16.80795898 74.11352539 30.40795898 74.11352539 C26.26468505 63.30974142 26.26468505 63.30974142 21.85717773 52.62524414 C21.55350784 51.91116898 21.24983795 51.19709381 20.93696594 50.46138 C19.99189361 48.24036159 19.0437532 46.02066978 18.09545898 43.80102539 C17.44355966 42.27051442 16.79186572 40.73991595 16.14038086 39.20922852 C14.56526515 35.5096511 12.98740188 31.81125737 11.40795898 28.11352539 C11.07795898 28.11352539 10.74795898 28.11352539 10.40795898 28.11352539 Z " fill="#151515" transform="translate(1051.592041015625,178.886474609375)"/>
<path d="M0 0 C1.12591553 0.00523682 2.25183105 0.01047363 3.41186523 0.01586914 C4.62680664 0.0190918 5.84174805 0.02231445 7.09350586 0.02563477 C8.37290039 0.03401367 9.65229492 0.04239258 10.97045898 0.05102539 C12.2537207 0.05553711 13.53698242 0.06004883 14.85913086 0.06469727 C18.04211921 0.07652994 21.22501661 0.09301471 24.40795898 0.11352539 C24.66673828 0.72083496 24.92551758 1.32814453 25.19213867 1.95385742 C32.17587056 18.32816099 39.24299504 34.66540059 46.34545898 50.98852539 C46.99020676 52.47048904 46.99020676 52.47048904 47.64797974 53.98239136 C49.77408245 58.86915666 51.90050826 63.7557813 54.02709961 68.64233398 C57.10560999 75.716493 60.18395095 82.79072112 63.25588989 89.86773682 C63.81032133 91.14443457 64.36522348 92.42092802 64.92062378 93.69720459 C65.67147934 95.42270872 66.4206303 97.14895432 67.16967773 98.87524414 C67.5817749 99.82359131 67.99387207 100.77193848 68.41845703 101.74902344 C69.40795898 104.11352539 69.40795898 104.11352539 70.40795898 107.11352539 C61.82795898 107.11352539 53.24795898 107.11352539 44.40795898 107.11352539 C42.42795898 102.82352539 40.44795898 98.53352539 38.40795898 94.11352539 C19.92795898 94.11352539 1.44795898 94.11352539 -17.59204102 94.11352539 C-19.57204102 98.40352539 -21.55204102 102.69352539 -23.59204102 107.11352539 C-31.84204102 107.11352539 -40.09204102 107.11352539 -48.59204102 107.11352539 C-47.90558763 103.68125848 -47.4316276 101.40916431 -46.08007812 98.36938477 C-45.77081894 97.66693634 -45.46155975 96.96448792 -45.14292908 96.24075317 C-44.80515945 95.48720551 -44.46738983 94.73365784 -44.11938477 93.95727539 C-43.76465591 93.15466278 -43.40992706 92.35205017 -43.04444885 91.52511597 C-42.27781109 89.7918056 -41.50892555 88.05948803 -40.73803711 86.32806396 C-38.67812169 81.70105698 -36.63455681 77.06682421 -34.58813477 72.43383789 C-34.16974335 71.48795807 -33.75135193 70.54207825 -33.32028198 69.5675354 C-29.19280818 60.22996683 -25.1352184 50.86283276 -21.09204102 41.48852539 C-20.42984824 39.95496247 -19.76757707 38.42143341 -19.10522461 36.88793945 C-16.71771223 31.35940582 -14.33202034 25.83008831 -11.94799805 20.30004883 C-10.51896981 16.98695133 -9.08713639 13.67508159 -7.65454102 10.36352539 C-7.24719727 9.41654785 -6.83985352 8.46957031 -6.42016602 7.49389648 C-6.05536133 6.65165527 -5.69055664 5.80941406 -5.31469727 4.94165039 C-5.00282471 4.21880859 -4.69095215 3.4959668 -4.36962891 2.7512207 C-3.13569103 0.15239644 -3.02910699 0.13266787 0 0 Z M9.40795898 29.11352539 C6.69953579 35.36039646 3.99391655 41.60847628 1.2902832 47.85742188 C0.36938635 49.98498312 -0.55216229 52.11226237 -1.47436523 54.23925781 C-2.79653913 57.28906279 -4.1163983 60.33986014 -5.43579102 63.39086914 C-6.05919373 64.82679665 -6.05919373 64.82679665 -6.69519043 66.29173279 C-7.07558472 67.17257034 -7.455979 68.0534079 -7.84790039 68.9609375 C-8.18543335 69.74037216 -8.52296631 70.51980682 -8.87072754 71.32286072 C-9.65431495 72.94637325 -9.65431495 72.94637325 -9.59204102 74.11352539 C3.60795898 74.11352539 16.80795898 74.11352539 30.40795898 74.11352539 C26.30586237 63.39654405 26.30586237 63.39654405 21.85717773 52.84399414 C21.55350784 52.15211502 21.24983795 51.4602359 20.93696594 50.74739075 C19.99256839 48.5973702 19.04411882 46.44916811 18.09545898 44.30102539 C17.44349294 42.81872371 16.79179866 41.33630246 16.14038086 39.85375977 C14.56602516 36.27230054 12.98804018 32.69246208 11.40795898 29.11352539 C10.74795898 29.11352539 10.08795898 29.11352539 9.40795898 29.11352539 Z " fill="#151515" transform="translate(1314.592041015625,178.886474609375)"/>
<path d="M0 0 C0.61101562 0.40863281 1.22203125 0.81726563 1.8515625 1.23828125 C7.61448094 5.5911239 11.11526731 11.56322942 12.52734375 18.64453125 C12.76996128 20.75497137 12.89732947 22.87814243 13 25 C7.06 25 1.12 25 -5 25 C-5.495 23.618125 -5.99 22.23625 -6.5 20.8125 C-8.86083868 15.5441021 -11.75130443 13.24271013 -17 11 C-26.62492132 7.34983024 -41.38271648 7.2907495 -51 11 C-54.89185773 12.85455481 -58.07867937 14.67329829 -60.5625 18.25 C-61.43349668 23.72483628 -61.21437279 28.25433911 -58 32.875 C-49.2233438 39.09179814 -37.9512954 39.11700045 -27.58544922 40.15405273 C-13.22369328 41.61564737 0.12248153 43.50057218 10.375 54.5625 C15.52313584 62.28470376 15.91839192 71.4889448 14.375 80.4375 C12.18979636 89.13341313 6.97706818 94.79802222 -0.4453125 99.56640625 C-17.2247746 108.98240409 -41.75388887 107.72408383 -59.89453125 103.29296875 C-68.08388765 100.78462043 -74.81618655 95.96944427 -79.4765625 88.6953125 C-81.9215628 83.61182268 -82.2603613 79.91710958 -83 74 C-77.06 74 -71.12 74 -65 74 C-63.68 76.64 -62.36 79.28 -61 82 C-55.02219564 88.14385448 -46.6150186 89.74415675 -38.3359375 90.203125 C-23.25124943 90.44703133 -23.25124943 90.44703133 -9.875 84.1875 C-6.43645544 80.76572883 -5.02892954 77.71937631 -4.9765625 72.796875 C-5.21205677 69.05375548 -5.75891162 66.44360262 -7.5625 63.125 C-14.79153065 56.82276815 -25.13287218 56.94822971 -34.25 56 C-65.25655431 52.74344569 -65.25655431 52.74344569 -75.4375 42.5625 C-81.03491448 33.38274025 -81.58318298 25.43634221 -80 15 C-78.04806581 7.9020575 -72.9278574 3.09759728 -67 -1 C-49.61866096 -9.91485978 -16.84086343 -11.58303518 0 0 Z " fill="#F80000" transform="translate(1840,183)"/>
<path d="M0 0 C6.93 0 13.86 0 21 0 C39.69892298 41.10998695 39.69892298 41.10998695 48.25732422 61.07958984 C53.10172523 72.34169397 58.19039595 83.48894083 63.32910156 94.61938477 C63.9446653 95.95979641 64.56022539 97.30020974 65.17578125 98.640625 C65.72145752 99.82172852 66.26713379 101.00283203 66.8293457 102.21972656 C68 105 68 105 68 107 C61.4 107 54.8 107 48 107 C46.02 102.38 44.04 97.76 42 93 C21.21 93 0.42 93 -21 93 C-22.98 97.62 -24.96 102.24 -27 107 C-33.6 107 -40.2 107 -47 107 C-42.4860113 95.87772117 -37.77271631 84.88788307 -32.80596924 73.9614563 C-23.94690412 54.46498657 -15.30892319 34.8737778 -6.73789978 15.24928284 C-4.51245078 10.15666551 -2.25729696 5.07891816 0 0 Z M10 21 C9.75832092 21.54377792 9.51664185 22.08755585 9.26763916 22.64781189 C3.60843913 35.38101196 -2.0507609 48.11421204 -7.70996094 60.84741211 C-8.09148315 61.70841522 -8.47300537 62.56941833 -8.86608887 63.45651245 C-9.63158629 65.17360748 -10.40498458 66.88719891 -11.18566895 68.59744263 C-11.55268921 69.40519135 -11.91970947 70.21294006 -12.29785156 71.04516602 C-12.62609924 71.76052017 -12.95434692 72.47587433 -13.2925415 73.21290588 C-14.12269287 74.98959307 -14.12269287 74.98959307 -14 77 C2.17 77 18.34 77 35 77 C33.00147126 71.00441377 30.96463663 65.35422351 28.3828125 59.6328125 C28.04377899 58.87257782 27.70474548 58.11234314 27.35543823 57.32907104 C26.28257032 54.92592705 25.20387187 52.52545357 24.125 50.125 C23.40977607 48.52490946 22.69492956 46.92465017 21.98046875 45.32421875 C18.35116306 37.20214581 14.69636666 29.09180447 11 21 C10.67 21 10.34 21 10 21 Z " fill="#F70000" transform="translate(1573,179)"/>
<path d="M0 0 C33.99 0 67.98 0 103 0 C103 6.93 103 13.86 103 21 C90.13 21 77.26 21 64 21 C64 49.38 64 77.76 64 107 C55.75 107 47.5 107 39 107 C39 78.62 39 50.24 39 21 C26.13 21 13.26 21 0 21 C0 14.07 0 7.14 0 0 Z " fill="#151515" transform="translate(925,179)"/>
<path d="M0 0 C6.27 0 12.54 0 19 0 C19 30.36 19 60.72 19 92 C42.1 92 65.2 92 89 92 C89 96.95 89 101.9 89 107 C59.63 107 30.26 107 0 107 C0 71.69 0 36.38 0 0 Z " fill="#F50000" transform="translate(1428,179)"/>
<path d="M0 0 C8.25 0 16.5 0 25 0 C25 35.31 25 70.62 25 107 C16.75 107 8.5 107 0 107 C0 71.69 0 36.38 0 0 Z " fill="#151515" transform="translate(1233,179)"/>
<path d="M0 0 C0.33 1.32 0.66 2.64 1 4 C1.58007812 3.95359375 2.16015625 3.9071875 2.7578125 3.859375 C8.39949528 3.59870319 11.59161489 4.11642265 16 8 C18.37302167 10.92672672 18.95966626 12.68309204 19.4375 16.4375 C18.81515735 21.50514728 16.73705209 24.47349968 12.9375 27.8125 C8.97750777 30.23959201 5.55426632 30.38595477 1 30 C-7.29811093 25.37220737 -7.29811093 25.37220737 -8.6171875 20.9140625 C-9.03159197 17.23465316 -9.2974853 14.72718629 -7.875 11.25 C-6 9 -6 9 -3.375 6.4375 C-1.11338793 4.11637182 -0.3487646 3.13888138 0 0 Z " fill="#EB0012" transform="translate(284,171)"/>
<path d="M0 0 C2.3431213 0.25561323 4.67843403 0.59270772 7 1 C8.41441874 3.82883747 8.31900332 5.87376745 8 9 C6.3125 10.9375 6.3125 10.9375 4 12 C0.62963689 11.75925978 -0.58798021 11.41201979 -3 9 C-3.4199362 5.80848491 -3.26924708 4.41508925 -1.5 1.6875 C-1.005 1.130625 -0.51 0.57375 0 0 Z " fill="#EB0012" transform="translate(272,204)"/>
</svg>
