<svg width="122" height="31" viewBox="0 0 122 31" fill="none" xmlns="http://www.w3.org/2000/svg">
<g clip-path="url(#clip0_7_836)">
<path fill-rule="evenodd" clip-rule="evenodd" d="M23.3154 10.3893L11.8111 30.3596C11.7479 30.4716 11.7479 30.5983 11.8111 30.7056C11.8742 30.8176 11.986 30.8809 12.1124 30.8809H35.1163C35.2427 30.8809 35.3545 30.8176 35.4176 30.7056C35.4808 30.5936 35.4808 30.4669 35.4176 30.3596L33.1527 26.428C32.2877 24.9273 30.8052 24.0699 29.0749 24.0699H23.8793C23.7529 24.0699 23.6411 24.0065 23.5778 23.8944C23.5147 23.7824 23.5147 23.6557 23.5778 23.5486L26.183 19.0273C27.0385 17.5316 27.0385 15.8264 26.183 14.3307L23.9133 10.3893C23.8501 10.2772 23.7382 10.2139 23.612 10.2139C23.4855 10.2139 23.3738 10.2772 23.3106 10.3893H23.3154Z" fill="url(#paint0_linear_7_836)"/>
<path fill-rule="evenodd" clip-rule="evenodd" d="M8.94359 28.5326L20.3022 8.8058C21.1576 7.31009 21.1576 5.60001 20.3022 4.10917L18.0325 0.172585C17.9692 0.0605286 17.8574 -0.00280762 17.731 -0.00280762C17.6047 -0.00280762 17.493 0.0605286 17.4297 0.172585L0.0443365 30.3596C-0.0188478 30.4716 -0.0188478 30.5983 0.0443365 30.7056C0.107521 30.8176 0.219308 30.8809 0.345676 30.8809H4.88522C6.60577 30.8761 8.07845 30.0234 8.94359 28.5326Z" fill="url(#paint1_linear_7_836)"/>
<path fill-rule="evenodd" clip-rule="evenodd" d="M23.5778 23.5583C23.5194 23.6655 23.5194 23.7922 23.5826 23.8994C23.6457 24.0115 23.7576 24.0747 23.8839 24.0747H29.0797C30.8099 24.0747 32.2923 24.9322 33.1574 26.4328L35.4224 30.3646C35.4855 30.4766 35.4855 30.6033 35.4224 30.7104C35.3591 30.8225 35.2473 30.8859 35.1211 30.8859H19.9616C19.8353 30.8859 19.7235 30.8225 19.6603 30.7104C19.5971 30.5984 19.5971 30.4717 19.6603 30.3646L23.5778 23.5631V23.5583Z" fill="url(#paint2_linear_7_836)"/>
<path d="M43.9272 17.5693C43.9068 16.5134 44.1414 15.4683 44.6113 14.5229C45.0271 13.6801 45.6708 12.9714 46.4692 12.4774C47.2594 11.9965 48.1685 11.7474 49.0931 11.7584C49.8626 11.7409 50.6244 11.9168 51.3086 12.2701C51.9057 12.5801 52.4258 13.0205 52.8302 13.5586V11.9459H55.7088V23.2744H52.8302V21.618C52.4361 22.1739 51.9142 22.6264 51.3086 22.9376C50.6189 23.296 49.8502 23.4752 49.0734 23.4592C48.153 23.4683 47.2492 23.213 46.4692 22.7232C45.6711 22.2154 45.0282 21.4968 44.6113 20.6467C44.1407 19.6905 43.9061 18.6352 43.9272 17.5693ZM52.8302 17.6102C52.8473 16.9889 52.7068 16.3735 52.422 15.8213C52.1683 15.3434 51.7861 14.9464 51.3185 14.6751C50.8665 14.4128 50.3531 14.2751 49.8306 14.2762C49.3149 14.2721 48.8075 14.4066 48.3611 14.6652C47.9011 14.9344 47.5234 15.3244 47.2687 15.7931C46.9776 16.3363 46.832 16.9458 46.8465 17.5622C46.8333 18.1847 46.9786 18.8005 47.2687 19.3512C47.5228 19.8363 47.9038 20.2432 48.371 20.5283C48.8108 20.7961 49.3158 20.9374 49.8306 20.9372C50.354 20.9387 50.8685 20.801 51.3213 20.5382C51.7889 20.2669 52.1711 19.8699 52.4248 19.3921C52.7096 18.8399 52.8501 18.2243 52.8331 17.6031L52.8302 17.6102Z" fill="#FAFAFA"/>
<path d="M59.2722 13.8939C59.6289 13.2942 60.1382 12.8003 60.7482 12.4627C61.3581 12.125 62.0466 11.9559 62.7433 11.9724V14.978H61.9889C61.0899 14.978 60.4123 15.1894 59.9562 15.6123C59.5002 16.0352 59.2722 16.7716 59.2722 17.8214V23.4603H56.4133V12.136H59.2722V13.8939Z" fill="#FAFAFA"/>
<path d="M66.3266 14.4832V19.9642C66.3266 20.3463 66.4194 20.6211 66.608 20.7918C66.7967 20.9623 67.1021 21.0483 67.537 21.0483H68.8645V23.4604H67.0612C64.6524 23.4604 63.448 22.2856 63.448 19.9361V9.33069H66.3266V12.1332H68.8603V14.4832H66.3266Z" fill="#FAFAFA"/>
<path d="M71.3264 10.7814C71.0958 10.7888 70.8659 10.7502 70.6503 10.6676C70.4347 10.5851 70.2378 10.4604 70.0708 10.3007C69.9119 10.1443 69.7858 9.9578 69.6997 9.75207C69.6136 9.54635 69.5693 9.32551 69.5693 9.10244C69.5693 8.87935 69.6136 8.65851 69.6997 8.45278C69.7858 8.24706 69.9119 8.06056 70.0708 7.90417C70.4162 7.59447 70.8635 7.42322 71.3271 7.42322C71.7907 7.42322 72.2381 7.59447 72.5833 7.90417C72.7422 8.06056 72.8683 8.24706 72.9544 8.45278C73.0405 8.65851 73.0849 8.87935 73.0849 9.10244C73.0849 9.32551 73.0405 9.54635 72.9544 9.75207C72.8683 9.9578 72.7422 10.1443 72.5833 10.3007C72.4162 10.4604 72.219 10.5851 72.0031 10.6677C71.7873 10.7502 71.5573 10.7889 71.3264 10.7814ZM72.734 12.1319V23.4605H69.8766V12.1319H72.734Z" fill="#FAFAFA"/>
<path d="M79.9561 14.483H77.9757V23.4601H75.076V14.483H73.7894V12.133H75.076V11.5592C75.076 10.1692 75.4706 9.14672 76.2598 8.49167C77.0489 7.83662 78.2402 7.53117 79.8336 7.57535V9.98597C79.1402 9.97188 78.657 10.0875 78.3838 10.3328C78.1107 10.5781 77.9747 11.0217 77.9757 11.6636V12.1344H79.9561V14.483Z" fill="#FAFAFA"/>
<path d="M82.4182 10.7814C82.1875 10.7888 81.9576 10.7502 81.7421 10.6676C81.5265 10.5851 81.3295 10.4603 81.1626 10.3007C81.0038 10.1443 80.8776 9.9578 80.7915 9.75207C80.7054 9.54635 80.661 9.32551 80.661 9.10244C80.661 8.87935 80.7054 8.65851 80.7915 8.45278C80.8776 8.24706 81.0038 8.06056 81.1626 7.90417C81.508 7.59447 81.9553 7.42322 82.4189 7.42322C82.8825 7.42322 83.3297 7.59447 83.6751 7.90417C83.834 8.06056 83.9601 8.24706 84.0462 8.45278C84.1323 8.65851 84.1767 8.87935 84.1767 9.10244C84.1767 9.32551 84.1323 9.54635 84.0462 9.75207C83.9601 9.9578 83.834 10.1443 83.6751 10.3007C83.508 10.4604 83.3107 10.5851 83.0949 10.6677C82.8792 10.7502 82.649 10.7889 82.4182 10.7814ZM83.8258 12.1319V23.4605H80.9684V12.1319H83.8258Z" fill="#FAFAFA"/>
<path d="M86.7392 8.3269V23.4603H84.8811V8.3269H86.7392Z" fill="#FAFAFA"/>
<path d="M87.4453 17.6314C87.4228 16.5837 87.6612 15.5469 88.1393 14.6146C88.5745 13.7793 89.2347 13.0829 90.0451 12.6044C90.8652 12.1239 91.8006 11.8763 92.7505 11.8883C93.6427 11.866 94.5242 12.0851 95.3025 12.5226C95.9754 12.8966 96.5334 13.448 96.9156 14.117V12.0687H98.7948V23.2747H96.9156V21.1896C96.523 21.8687 95.9557 22.4301 95.2729 22.8151C94.5003 23.2558 93.6227 23.4783 92.7337 23.4593C91.7845 23.4716 90.851 23.2166 90.0395 22.7234C89.2278 22.2239 88.5702 21.5091 88.1393 20.6581C87.6653 19.7209 87.4271 18.682 87.4453 17.6314ZM96.9198 17.6512C96.9386 16.8837 96.7632 16.1237 96.4102 15.4422C96.0948 14.8421 95.6173 14.3428 95.0323 14.0014C94.4511 13.6743 93.7959 13.5015 93.1293 13.4995C92.4625 13.4976 91.8064 13.6665 91.2233 13.9902C90.6415 14.3288 90.1672 14.8253 89.8551 15.4225C89.5015 16.1039 89.3258 16.8638 89.3441 17.6314C89.3251 18.4087 89.5007 19.1785 89.8551 19.8702C90.1662 20.4731 90.6403 20.9762 91.2233 21.3222C91.7996 21.6578 92.4556 21.8311 93.1221 21.8241C93.7921 21.8303 94.4517 21.6569 95.0323 21.3222C95.6197 20.9788 96.0976 20.4752 96.4102 19.8702C96.7625 19.1848 96.9377 18.4219 96.9198 17.6512Z" fill="#FAFAFA"/>
<path d="M101.357 14.1549C101.758 13.4684 102.337 12.9033 103.032 12.5196C103.798 12.0887 104.665 11.8697 105.543 11.8852C106.496 11.8721 107.434 12.1208 108.255 12.6042C109.063 13.0854 109.72 13.7831 110.153 14.6187C110.632 15.5506 110.871 16.5876 110.849 17.6355C110.867 18.6861 110.628 19.7253 110.153 20.6622C109.723 21.515 109.062 22.2294 108.246 22.7239C107.429 23.2185 106.491 23.4733 105.536 23.459C104.648 23.4789 103.77 23.2599 102.994 22.8247C102.311 22.4436 101.745 21.8831 101.357 21.2036V23.2688H99.4993V8.14099H101.357V14.1549ZM108.958 17.6327C108.977 16.8649 108.801 16.105 108.447 15.4236C108.134 14.8245 107.656 14.3276 107.069 13.9914C106.486 13.6633 105.828 13.4941 105.159 13.5008C104.496 13.4964 103.844 13.6697 103.27 14.0026C102.681 14.3472 102.2 14.8501 101.882 15.4546C101.524 16.1308 101.345 16.8873 101.362 17.6525C101.344 18.4243 101.523 19.1881 101.882 19.8713C102.2 20.4758 102.681 20.9788 103.27 21.3233C103.844 21.6562 104.496 21.8296 105.159 21.8252C105.829 21.8314 106.489 21.6582 107.069 21.3233C107.657 20.9799 108.135 20.4763 108.447 19.8713C108.802 19.1796 108.977 18.41 108.958 17.6327Z" fill="#FAFAFA"/>
<path d="M116.13 23.4454C115.339 23.4583 114.554 23.3086 113.823 23.0055C113.186 22.7466 112.63 22.3235 112.21 21.7791C111.815 21.2553 111.587 20.6246 111.555 19.969H113.475C113.5 20.2408 113.583 20.5039 113.719 20.7404C113.855 20.977 114.04 21.1813 114.262 21.3392C114.731 21.6936 115.347 21.8707 116.109 21.8707C116.816 21.8707 117.375 21.7138 117.784 21.3998C117.974 21.2667 118.129 21.0891 118.236 20.8826C118.342 20.6762 118.397 20.4469 118.396 20.2143C118.405 19.9883 118.347 19.7646 118.231 19.5704C118.115 19.3763 117.946 19.2199 117.743 19.1204C117.308 18.8817 116.634 18.6467 115.722 18.4154C115.029 18.2432 114.35 18.0214 113.689 17.7515C113.168 17.5277 112.707 17.1844 112.342 16.7492C111.967 16.3065 111.779 15.7239 111.779 15.0012C111.777 14.4351 111.956 13.8832 112.29 13.4265C112.662 12.9261 113.164 12.5363 113.74 12.2987C114.416 12.0072 115.147 11.863 115.884 11.8758C117.122 11.8758 118.123 12.1897 118.885 12.8175C119.647 13.4453 120.055 14.3039 120.111 15.393H118.251C118.24 15.1217 118.171 14.8558 118.05 14.6128C117.929 14.3698 117.757 14.1553 117.547 13.9833C117.119 13.6299 116.544 13.4528 115.822 13.4518C115.154 13.4518 114.624 13.5952 114.23 13.8818C114.044 14.0048 113.893 14.1725 113.789 14.3697C113.686 14.5668 113.633 14.7868 113.637 15.0097C113.632 15.1775 113.661 15.3449 113.722 15.5012C113.783 15.6577 113.876 15.7997 113.995 15.9188C114.251 16.17 114.557 16.3653 114.893 16.4927C115.385 16.6777 115.886 16.8377 116.395 16.972C117.061 17.1449 117.715 17.3601 118.354 17.6162C118.855 17.8258 119.3 18.152 119.65 18.5678C120.012 18.9907 120.199 19.5428 120.213 20.2242C120.22 20.816 120.042 21.3951 119.704 21.8806C119.339 22.3909 118.841 22.7907 118.264 23.0366C117.591 23.3281 116.863 23.4723 116.13 23.4594V23.4454Z" fill="#FAFAFA"/>
</g>
<defs>
<linearGradient id="paint0_linear_7_836" x1="26.567" y1="35.6701" x2="9.07003" y2="5.34409" gradientUnits="userSpaceOnUse">
<stop stop-color="#C835F8"/>
<stop offset="0.6" stop-color="#E30A6C"/>
<stop offset="1" stop-color="#FFAD65"/>
</linearGradient>
<linearGradient id="paint1_linear_7_836" x1="22.1297" y1="38.2279" x2="4.63266" y2="7.90184" gradientUnits="userSpaceOnUse">
<stop stop-color="#C835F8"/>
<stop offset="0.6" stop-color="#E30A6C"/>
<stop offset="1" stop-color="#FFAD65"/>
</linearGradient>
<linearGradient id="paint2_linear_7_836" x1="19.6116" y1="27.2173" x2="35.4661" y2="27.2173" gradientUnits="userSpaceOnUse">
<stop stop-color="#A20C59"/>
<stop offset="1" stop-color="#C835F7"/>
</linearGradient>
<clipPath id="clip0_7_836">
<rect width="121.203" height="31.0053" fill="white" transform="translate(-0.00317383 -0.00268555)"/>
</clipPath>
</defs>
</svg>
