<svg width="105" height="35" viewBox="250 230 1440 480" fill="none" xmlns="http://www.w3.org/2000/svg" class="sc-4281c9f4-5 gJqPhp"><path opacity="0.2" d="M358.7 527.9C370.4 539.7 384 549.5 398.9 556.5C402.3 558.1 405.6 559.5 409 560.9C385 535.4 370.3 502.6 366.9 467.6C360 486.9 357.3 507.4 358.7 527.9Z" fill="#E8E8E8"></path><path opacity="0.2" d="M594.7 476.3C601.6 457.3 604.4 436.9 602.9 416.7H602.8C588.7 402.1 571.4 390.7 552.4 383.3C576.4 409 591.1 441.5 594.8 476.3" fill="#E8E8E8"></path><path opacity="0.4" d="M427.6 334.4C422.3 336.5 417.2 338.8 412.3 341.3C401.5 346.7 391.3 353.1 381.7 360.6L380.9 361.2C374.9 365.9 369.1 370.9 363.7 376.2C351.5 388.1 340.8 401.7 332.1 416.4C327.2 424.8 322.8 433.6 319.1 442.7L318.2 444.9C315.7 451.1 313.7 457.5 311.9 464.1C304.1 492.7 302.8 522.7 308 552C308.3 553.4 308.5 554.9 308.8 556.4C310 561.8 311.3 567.4 312.8 572.7C314.6 578.7 316.7 584.8 319.1 590.7C335.3 630.5 364.2 664 401.3 685.9C410 691.1 419.2 695.5 428.5 699.1C500.7 727.7 582.8 711 638.4 657C655.4 640.4 669.4 620.6 679.3 598.8C677.6 600.6 675.9 602.3 674.1 604.1C645.2 632.3 608.9 651.8 569.5 660.1C567.7 661 565.9 661.8 564.1 662.6C507.1 687.2 441 676.6 394.7 635.1C392.1 632.8 389.6 630.4 387.2 627.8L386 626.6C363.7 603.4 349.1 574.1 343.9 542.5C343.5 539.6 343.1 536.8 342.7 533.9C342.1 528.2 341.8 522.5 341.8 516.7C341.7 485.5 350.7 454.9 368.1 428.7C372.4 422.1 377.2 415.9 382.5 409.9C384.7 407.4 387 405 389.4 402.6C418.6 374 457.7 357.8 498.5 357.2H502.3C508.9 357.3 515.5 357.7 522.3 358.6C550 362.2 576.3 373.2 598.2 390.5C597.3 387 596.1 383.6 595 380.1C594 377.4 593.1 374.8 591.9 372.1C585.7 357.1 576.9 343.1 565.7 331.2L565.1 330.8C555.9 327.7 546.3 325.1 536.7 323.3C524.9 321.1 512.7 320.1 500.8 320.1C475.9 320.1 450.9 324.9 427.6 334.2" fill="#E8E8E8"></path><path opacity="0.6" d="M401.3 308.3C399.7 308.6 398.3 308.8 396.9 309.2C391.5 310.4 386 311.7 380.6 313.3C377.5 314.2 374.4 315.2 371.1 316.3C368 317.3 365.1 318.5 362.2 319.7C322.3 335.8 288.9 364.7 267.1 402C264.2 406.7 261.8 411.6 259.3 416.6C257.4 420.6 255.7 424.6 254 428.8C215.8 524.8 258.4 633.9 351.6 678.5C352.5 678.9 353.4 679.3 354.3 679.8C352.5 678.1 350.7 676.3 349 674.5C320.8 645.7 301.3 609.3 292.9 569.9C292.1 568.6 291.2 566.5 290.3 564.5C288.9 561.3 287.6 557.9 286.4 554.4C272.4 514.6 274.7 470.9 293 432.8C296.1 426.5 299.6 420.2 303.4 414.1C307.8 407.5 312.6 401.1 317.9 395.1C320.5 392.1 323.3 389.3 326.2 386.5C331.5 381.3 337.3 376.5 343.4 372.2C352.7 365.6 362.8 359.9 373.5 355.4C398.4 336.5 427 323.5 457.5 317.3C468.8 315 480.4 313.5 491.8 313L489.2 312.2C472.2 307.4 454.5 304.9 436.6 304.9C424.8 304.9 413 306.1 401.4 308.1" fill="#E8E8E8"></path><path d="M661.1 357.1C664.2 365.8 666.7 375 668.6 384.1C669.2 385.4 670.3 387.5 671.1 389.4C676.2 401.2 679.7 413.5 681.7 426.1C683.1 434.7 683.9 443.3 683.9 452.3C684 483.4 674.8 514 657.6 540C653.3 546.6 648.5 552.8 643.2 558.8C641 561.3 638.7 563.7 636.3 566.1L635.1 567.1C621.4 580.3 605.3 591.1 587.8 598.6C570.6 611.4 551.4 621.8 531 628.8C511.2 635.7 490.7 639.7 469.7 640.7C470.5 641 471.4 641.1 472.2 641.3C500.8 649.1 530.8 650.5 560.1 645.3H560.9C562.2 644.9 563.5 644.8 564.8 644.4C570.1 643.4 575.4 641.9 581.1 640.4C586.8 638.7 592.2 636.9 597.9 634.6L598.7 634.3C622.4 624.7 644.1 610.6 662.3 592.6C674.5 580.7 685.2 567.1 693.9 552.3C699 543.7 703.4 534.7 707 525.5C736 453.2 719.6 370.6 665.1 314.8C648.5 297.8 628.9 284 607.2 274C631.4 296.9 650 325.6 661 357.2" fill="#E8E8E8"></path><path opacity="0.8" d="M283.3 349.2C282.9 350 282.5 350.9 282.1 351.7C305.3 327.3 333.8 309.1 365.4 297.8C374.1 294.7 383 292.2 392.1 290.3C394 289.3 396 288.4 397.9 287.6C401 286.3 404.2 285 407.5 284C416.3 280.9 425.5 278.6 434.8 277.1C474.2 270.8 514.8 279.3 548.1 301.5C554.7 305.8 560.8 310.6 566.8 315.8C569.7 318.4 572.5 321 575.2 323.8C588.4 337.5 599.2 353.7 606.7 371.2C608.1 374.6 609.4 377.8 610.6 381.2C613.7 389.9 616 399.1 617.5 408.3C618 411.2 618.4 414 618.7 417C619.3 422.7 619.7 428.4 619.7 434.2C619.7 457.9 614.4 481.4 604 502.9C601 509.2 597.4 515.5 593.6 521.4C564.4 565.6 515.5 592.5 462.5 593.3C454.7 593.4 446.8 592.9 438.9 591.9C422.6 589.7 406.6 584.9 391.7 577.8C381.6 573 371.9 567 363.1 560.2C369.2 582.4 380.3 602.7 395.9 619.7C405.1 622.9 414.8 625.5 424.4 627.3C449.4 632.1 475.2 631.8 500.1 626.7C508.8 624.9 517.3 622.4 525.8 619.6C528.8 618.6 531.6 617.5 534.5 616.2C539.4 614.1 544.3 611.9 549 609.6C582.7 592.8 610.8 566.4 629.7 533.9C632.4 529.4 635 524.4 637.5 519.3C639.3 515.5 641 511.7 642.6 507.8L642.9 507.2C645.5 500.7 647.8 494.1 649.6 487.2C657.6 458.6 659.1 428.6 653.6 399.3C653.3 397.7 653.1 396.3 652.8 395C651.8 389.6 650.3 384.1 648.7 378.5C647.8 375.4 646.8 372.3 645.7 369C644.7 366.1 643.6 363.3 642.5 360.4C626.6 320.5 597.7 286.9 560.6 265.2C555.7 262.2 550.5 259.5 545.4 257.2C541.6 255.4 537.9 253.7 534 252.1C510 242.5 485.1 237.8 460.7 237.8C387.1 237.7 317 279.1 283.4 349.2" fill="#E8E8E8"></path><path d="M841.2 356.2C841.2 352.6 844.1 349.4 848 349.4H881.1C884.7 349.4 887.9 352.6 887.9 356.2V558.2H979.7C983.7 558.2 986.5 561.4 986.5 565V594.5C986.5 598.1 983.6 601.3 979.7 601.3H847.9C843.9 601.3 841.1 598.1 841.1 594.5V356.2H841.2Z" fill="#E8E8E8"></path><path d="M1257.8 592L1146.9 349.7C1145.8 347.5 1144.4 345.7 1140.8 345.7H1137.2C1134 345.7 1132.2 347.5 1131.1 349.7L1019.1 592C1016.9 596.7 1019.8 601.4 1025.2 601.4H1056.5C1062.3 601.4 1065.5 597.8 1066.9 594.2L1084.5 555.3L1137.4 436.1H1138.5L1192.1 555.3L1209.7 594.2C1212.2 599.2 1214.7 601.4 1220.1 601.4H1251.4C1256.8 601.4 1259.7 596.7 1257.5 592H1257.8Z" fill="#E8E8E8"></path><path d="M1390.5 345.8C1426.9 345.8 1453.1 357.3 1477.6 379.3C1480.8 382.2 1480.8 386.5 1478 389.4L1456 412.1C1453.5 415 1449.9 415 1447 412.1C1431.9 398.8 1411.7 390.9 1391.6 390.9C1345.5 390.9 1311.3 429.4 1311.3 474.8C1311.3 520.2 1345.9 558 1391.9 558C1437.9 558 1431.9 549.7 1447 537.5C1449.9 535 1453.8 535.3 1456 537.5L1478.3 560.5C1481.2 563 1480.5 567.7 1477.9 570.2C1453.4 594 1422.5 605.1 1390.4 605.1C1318.4 605.1 1260.4 547.9 1260.4 475.9C1260.4 403.9 1318.4 345.9 1390.4 345.9L1390.5 345.8Z" fill="#E8E8E8"></path><path d="M1518.2 356.2C1518.2 352.6 1521.1 349.4 1525 349.4H1671.5C1675.5 349.4 1678.3 352.6 1678.3 356.2V385.7C1678.3 389.3 1675.4 392.5 1671.5 392.5H1564.9V451.5H1653.8C1657.4 451.5 1660.6 454.7 1660.6 458.3V488.2C1660.6 492.2 1657.4 495 1653.8 495H1564.9V558H1671.5C1675.5 558 1678.3 561.2 1678.3 564.8V594.3C1678.3 597.9 1675.4 601.1 1671.5 601.1H1525C1521 601.1 1518.2 597.9 1518.2 594.3V356V356.2Z" fill="#E8E8E8"></path></svg>