<?xml version="1.0" encoding="UTF-8"?>
<svg xmlns="http://www.w3.org/2000/svg" version="1.1" xmlns:xlink="http://www.w3.org/1999/xlink" xmlns:xodm="http://www.corel.com/coreldraw/odm/2003" viewBox="0 0 2651.5 841.2">
  <defs>
    <style>
      .cls-1 {
        fill: url(#linear-gradient-13);
      }

      .cls-1, .cls-2, .cls-3, .cls-4, .cls-5, .cls-6, .cls-7, .cls-8, .cls-9, .cls-10, .cls-11, .cls-12, .cls-13, .cls-14, .cls-15, .cls-16, .cls-17 {
        fill-rule: evenodd;
      }

      .cls-2 {
        fill: url(#linear-gradient-15);
      }

      .cls-3 {
        fill: url(#linear-gradient-10);
      }

      .cls-4 {
        fill: #fff;
      }

      .cls-5 {
        fill: url(#linear-gradient-3);
      }

      .cls-6 {
        fill: url(#linear-gradient-5);
      }

      .cls-7 {
        fill: url(#linear-gradient-2);
      }

      .cls-8 {
        fill: url(#linear-gradient-16);
      }

      .cls-9 {
        fill: url(#linear-gradient-9);
      }

      .cls-10 {
        fill: url(#linear-gradient-12);
      }

      .cls-11 {
        fill: url(#linear-gradient-6);
      }

      .cls-12 {
        fill: url(#linear-gradient-4);
      }

      .cls-13 {
        fill: url(#linear-gradient-7);
      }

      .cls-14 {
        fill: url(#linear-gradient-8);
      }

      .cls-15 {
        fill: url(#linear-gradient-14);
      }

      .cls-16 {
        fill: url(#linear-gradient-11);
      }

      .cls-17 {
        fill: url(#linear-gradient);
      }
    </style>
    <linearGradient id="linear-gradient" x1="14.5" y1="-38.7" x2="14.5" y2="856.9" gradientTransform="translate(0 844) scale(1 -1)" gradientUnits="userSpaceOnUse">
      <stop offset="0" stop-color="#4eec91"/>
      <stop offset=".4" stop-color="#19b5fe"/>
      <stop offset="1" stop-color="#0287d0"/>
    </linearGradient>
    <linearGradient id="linear-gradient-2" x1="58.2" y1="-38.7" x2="58.2" y2="856.9" gradientTransform="translate(0 844) scale(1 -1)" gradientUnits="userSpaceOnUse">
      <stop offset="0" stop-color="#4eec91"/>
      <stop offset=".4" stop-color="#19b5fe"/>
      <stop offset="1" stop-color="#0287d0"/>
    </linearGradient>
    <linearGradient id="linear-gradient-3" x1="101.8" y1="-38.7" x2="101.8" y2="856.9" gradientTransform="translate(0 844) scale(1 -1)" gradientUnits="userSpaceOnUse">
      <stop offset="0" stop-color="#4eec91"/>
      <stop offset=".4" stop-color="#19b5fe"/>
      <stop offset="1" stop-color="#0287d0"/>
    </linearGradient>
    <linearGradient id="linear-gradient-4" x1="145.5" y1="-38.7" x2="145.5" y2="856.9" gradientTransform="translate(0 844) scale(1 -1)" gradientUnits="userSpaceOnUse">
      <stop offset="0" stop-color="#4eec91"/>
      <stop offset=".4" stop-color="#19b5fe"/>
      <stop offset="1" stop-color="#0287d0"/>
    </linearGradient>
    <linearGradient id="linear-gradient-5" x1="189.1" y1="-38.7" x2="189.1" y2="856.9" gradientTransform="translate(0 844) scale(1 -1)" gradientUnits="userSpaceOnUse">
      <stop offset="0" stop-color="#4eec91"/>
      <stop offset=".4" stop-color="#19b5fe"/>
      <stop offset="1" stop-color="#0287d0"/>
    </linearGradient>
    <linearGradient id="linear-gradient-6" x1="232.9" y1="-38.7" x2="232.9" y2="856.9" gradientTransform="translate(0 844) scale(1 -1)" gradientUnits="userSpaceOnUse">
      <stop offset="0" stop-color="#4eec91"/>
      <stop offset=".4" stop-color="#19b5fe"/>
      <stop offset="1" stop-color="#0287d0"/>
    </linearGradient>
    <linearGradient id="linear-gradient-7" x1="276.5" y1="-38.7" x2="276.5" y2="856.9" gradientTransform="translate(0 844) scale(1 -1)" gradientUnits="userSpaceOnUse">
      <stop offset="0" stop-color="#4eec91"/>
      <stop offset=".4" stop-color="#19b5fe"/>
      <stop offset="1" stop-color="#0287d0"/>
    </linearGradient>
    <linearGradient id="linear-gradient-8" x1="494.7" y1="-38.7" x2="494.7" y2="856.9" gradientTransform="translate(0 844) scale(1 -1)" gradientUnits="userSpaceOnUse">
      <stop offset="0" stop-color="#4eec91"/>
      <stop offset=".4" stop-color="#19b5fe"/>
      <stop offset="1" stop-color="#0287d0"/>
    </linearGradient>
    <linearGradient id="linear-gradient-9" x1="451.1" y1="-38.7" x2="451.1" y2="856.9" gradientTransform="translate(0 844) scale(1 -1)" gradientUnits="userSpaceOnUse">
      <stop offset="0" stop-color="#4eec91"/>
      <stop offset=".4" stop-color="#19b5fe"/>
      <stop offset="1" stop-color="#0287d0"/>
    </linearGradient>
    <linearGradient id="linear-gradient-10" x1="407.4" y1="-38.7" x2="407.4" y2="856.9" gradientTransform="translate(0 844) scale(1 -1)" gradientUnits="userSpaceOnUse">
      <stop offset="0" stop-color="#4eec91"/>
      <stop offset=".4" stop-color="#19b5fe"/>
      <stop offset="1" stop-color="#0287d0"/>
    </linearGradient>
    <linearGradient id="linear-gradient-11" x1="363.8" y1="-38.7" x2="363.8" y2="856.9" gradientTransform="translate(0 844) scale(1 -1)" gradientUnits="userSpaceOnUse">
      <stop offset="0" stop-color="#4eec91"/>
      <stop offset=".4" stop-color="#19b5fe"/>
      <stop offset="1" stop-color="#0287d0"/>
    </linearGradient>
    <linearGradient id="linear-gradient-12" x1="320.2" y1="-38.7" x2="320.2" y2="856.9" gradientTransform="translate(0 844) scale(1 -1)" gradientUnits="userSpaceOnUse">
      <stop offset="0" stop-color="#4eec91"/>
      <stop offset=".4" stop-color="#19b5fe"/>
      <stop offset="1" stop-color="#0287d0"/>
    </linearGradient>
    <linearGradient id="linear-gradient-13" x1="538.4" y1="-38.7" x2="538.4" y2="856.9" gradientTransform="translate(0 844) scale(1 -1)" gradientUnits="userSpaceOnUse">
      <stop offset="0" stop-color="#4eec91"/>
      <stop offset=".4" stop-color="#19b5fe"/>
      <stop offset="1" stop-color="#0287d0"/>
    </linearGradient>
    <linearGradient id="linear-gradient-14" x1="101.8" y1="-38.7" x2="101.8" y2="856.9" gradientTransform="translate(0 844) scale(1 -1)" gradientUnits="userSpaceOnUse">
      <stop offset="0" stop-color="#4eec91"/>
      <stop offset=".4" stop-color="#19b5fe"/>
      <stop offset="1" stop-color="#0287d0"/>
    </linearGradient>
    <linearGradient id="linear-gradient-15" x1="145.5" y1="-38.7" x2="145.5" y2="856.9" gradientTransform="translate(0 844) scale(1 -1)" gradientUnits="userSpaceOnUse">
      <stop offset="0" stop-color="#4eec91"/>
      <stop offset=".4" stop-color="#19b5fe"/>
      <stop offset="1" stop-color="#0287d0"/>
    </linearGradient>
    <linearGradient id="linear-gradient-16" x1="189.1" y1="-38.7" x2="189.1" y2="856.9" gradientTransform="translate(0 844) scale(1 -1)" gradientUnits="userSpaceOnUse">
      <stop offset="0" stop-color="#4eec91"/>
      <stop offset=".4" stop-color="#19b5fe"/>
      <stop offset="1" stop-color="#0287d0"/>
    </linearGradient>
  </defs>
  <!-- Generator: Adobe Illustrator 28.6.0, SVG Export Plug-In . SVG Version: 1.2.0 Build 709)  -->
  <g>
    <g id="Layer_1">
      <g id="Layer_1-2" data-name="Layer_1" image-rendering="optimizeQuality" shape-rendering="geometricPrecision" text-rendering="geometricPrecision">
        <g>
          <path class="cls-17" d="M14.5,462.2c-8,0-14.5,6.5-14.5,14.5v180.5c0,8,6.5,14.5,14.5,14.5s14.5-6.5,14.5-14.5v-180.5c0-8-6.5-14.5-14.5-14.5Z"/>
          <path class="cls-7" d="M58.2,377.6c-8,0-14.5,6.5-14.5,14.5v349.7c0,8,6.5,14.5,14.5,14.5s14.5-6.5,14.5-14.5v-349.7c0-8-6.5-14.5-14.5-14.5h0Z"/>
          <path class="cls-5" d="M101.8,292.8c-8,0-14.5,6.5-14.5,14.5v225.5c0,8,6.5,14.5,14.5,14.5s14.5-6.5,14.5-14.5v-225.5c0-8-6.5-14.5-14.5-14.5Z"/>
          <path class="cls-12" d="M145.5,715.8c-8,0-14.5,6.5-14.5,14.5v54.8c0,8,6.5,14.5,14.5,14.5s14.5-6.5,14.5-14.5v-54.8c0-8-6.5-14.5-14.5-14.5Z"/>
          <path class="cls-6" d="M189.1,715.8c-8,0-14.5,6.5-14.5,14.5v96.3c0,8,6.5,14.5,14.5,14.5s14.5-6.5,14.5-14.5v-96.3c0-8-6.5-14.5-14.5-14.5Z"/>
          <path class="cls-11" d="M232.9,83.4c-8,0-14.5,6.5-14.5,14.5v728.7c0,8,6.5,14.5,14.5,14.5s14.5-6.5,14.5-14.5V98c0-8-6.5-14.5-14.5-14.5h0Z"/>
          <path class="cls-13" d="M276.5,0c-8,0-14.5,6.5-14.5,14.5v812.1c0,8,6.5,14.5,14.5,14.5s14.5-6.5,14.5-14.5V14.5c0-8-6.5-14.5-14.5-14.5Z"/>
          <path class="cls-14" d="M494.7,377.6c-8,0-14.5,6.5-14.5,14.5v349.7c0,8,6.5,14.5,14.5,14.5s14.5-6.5,14.5-14.5v-349.7c0-8-6.5-14.5-14.5-14.5h0Z"/>
          <path class="cls-9" d="M451.1,292.8c-8,0-14.5,6.5-14.5,14.5v477.9c0,8,6.5,14.5,14.5,14.5s14.5-6.5,14.5-14.5v-477.9c0-8-6.5-14.5-14.5-14.5h0Z"/>
          <path class="cls-3" d="M407.4,251.9c-8,0-14.5,6.5-14.5,14.5v518.7c0,8,6.5,14.5,14.5,14.5s14.5-6.5,14.5-14.5V266.5c0-8-6.5-14.5-14.5-14.5h0Z"/>
          <path class="cls-16" d="M363.8,167.2c-8,0-14.5,6.5-14.5,14.5v644.9c0,8,6.5,14.5,14.5,14.5s14.5-6.5,14.5-14.5V181.7c0-8-6.5-14.5-14.5-14.5Z"/>
          <path class="cls-10" d="M320.2,83.4c-8,0-14.5,6.5-14.5,14.5v728.7c0,8,6.5,14.5,14.5,14.5s14.5-6.5,14.5-14.5V98c0-8-6.5-14.5-14.5-14.5h0Z"/>
          <path class="cls-1" d="M538.4,462.2c-8,0-14.5,6.5-14.5,14.5v180.5c0,8,6.5,14.5,14.5,14.5s14.5-6.5,14.5-14.5v-180.5c0-8-6.5-14.5-14.5-14.5Z"/>
          <path class="cls-15" d="M101.8,672.4c-8,0-14.5,6.5-14.5,14.5v98.2c0,8,6.5,14.5,14.5,14.5s14.5-6.5,14.5-14.5v-98.2c0-8-6.5-14.5-14.5-14.5Z"/>
          <path class="cls-2" d="M145.5,251.9c-8,0-14.5,6.5-14.5,14.5v350.2c0,8,6.5,14.5,14.5,14.5s14.5-6.5,14.5-14.5v-350.2c0-8-6.5-14.5-14.5-14.5h0Z"/>
          <path class="cls-8" d="M189.1,167.2c-8,0-14.5,6.5-14.5,14.5v476.8c0,8.1,6.5,14.7,14.5,14.7s14.5-6.5,14.5-14.7V181.7c0-8-6.5-14.5-14.5-14.5Z"/>
        </g>
        <g>
          <path class="cls-4" d="M2546.3,371.4v-140.4c0-4.5,3.6-8.1,8.1-8.1h88.9c4.5,0,8.2,3.6,8.2,8.1v489.9c0,4.5-3.8,8.2-8.2,8.2h-43.8c-22.1,0-40.9-13.8-48.4-33.1-1.1-2.7-3.3-4.5-6.1-5.1s-5.5.2-7.5,2.3c-27.6,28.6-68.6,41.8-108.4,41.8-66.3,0-121.6-36.1-151.7-94.9-30.7-60-30.9-145.2,0-205.4,30.4-59,86-93.2,152.4-93.2s74.4,12.7,102.9,36.2c2.5,2.1,5.8,2.4,8.7,1.1,2.9-1.5,4.7-4.2,4.7-7.5h.2ZM2546.9,538.4c0-37.3-13.7-72.7-47.2-91.9-28.5-16.4-63.6-16.7-92.3-.4-32.5,18.8-47,54.2-47,90.9,0,86.1,77.2,128.9,139.3,93.2,33.5-19.2,47.2-54.4,47.2-91.9h0Z"/>
          <path class="cls-4" d="M1339.8,369.5v-13.7c0-4.5,3.8-8.1,8.2-8.1h88.1c4.5,0,8.2,3.6,8.2,8.1v477.1c0,4.5-3.8,8.2-8.2,8.2h-44.1c-28.9,0-52.2-23.4-52.2-52.2v-83.8c0-3.3-1.7-6.1-4.6-7.4-2.9-1.5-6.2-1-8.7,1-9.1,7.4-19.2,13.7-29.7,19.2-22.8,11.6-47.8,16.6-73.3,16.6s-61.7-8.4-88.7-25.2c-27.8-17.3-48.7-41.1-63.9-70.1-16.5-31.5-23.4-66.1-23.4-101.5s7-69.9,23.8-101.3c15.4-28.7,36.6-52.2,64.5-69.3,27.5-16.7,57.6-24.9,89.8-24.9s49.7,4.5,72.3,15.6c10.3,5.1,20,11,28.9,18.1,2.5,1.9,5.7,2.3,8.6.8,2.9-1.3,4.6-4.1,4.6-7.3h-.2ZM1339.8,538.4c0-19.8-3.6-39.3-13.5-56.5-8.4-14.9-19.6-27.3-34.7-35.8-14.1-8-29.2-12-45.5-12s-30.9,4.1-44.7,12c-14.9,8.5-26.2,20.6-34.7,35.4-9.9,17.1-13.5,36.6-13.5,56.2s3.6,39.4,13.5,56.9c8.4,14.9,19.6,27.5,34.7,36,13.8,7.9,28.7,12,44.7,12s31.4-4,45.5-12c15-8.5,26.3-20.9,34.7-35.8,9.8-17.2,13.5-36.7,13.5-56.5h0Z"/>
          <path class="cls-4" d="M989.1,355.8v365.1c0,4.5-3.8,8.2-8.2,8.2h-43.8c-28.6,0-51.9-23.3-51.9-52v-321.4c0-4.5,3.6-8.1,8.1-8.1h87.5c4.5,0,8.2,3.6,8.2,8.1h.1Z"/>
          <path class="cls-4" d="M937.8,313.4c-17.1,0-32.4-5.3-44.7-17.2-12.1-11.5-17.9-26.1-17.9-42.8s5.8-31.2,17.9-42.8c12.4-11.9,27.6-17.2,44.7-17.2s32.2,5.3,44.6,17.2c12.1,11.6,18.1,26.1,18.1,42.8s-5.9,31.3-18.1,42.8c-12.4,11.9-27.5,17.2-44.6,17.2h0Z"/>
          <path class="cls-4" d="M2144.9,313.4c-17.1,0-32.4-5.3-44.7-17.2-12.1-11.5-17.9-26.1-17.9-42.8s5.8-31.2,17.9-42.8c12.4-11.9,27.6-17.2,44.7-17.2s32.2,5.3,44.6,17.2c12.1,11.6,18.1,26.1,18.1,42.8s-5.9,31.3-18.1,42.8c-12.4,11.9-27.6,17.2-44.6,17.2h0Z"/>
          <path class="cls-4" d="M802.6,231.1v489.9c0,4.5-3.6,8.2-8.2,8.2h-43.8c-28.6,0-51.9-23.3-51.9-52V231.1c0-4.5,3.6-8.1,8.2-8.1h87.4c4.6,0,8.2,3.6,8.2,8.1h0Z"/>
          <path class="cls-4" d="M2196.1,355.8v365.1c0,4.5-3.8,8.2-8.2,8.2h-43.8c-28.6,0-51.9-23.3-51.9-52v-321.4c0-4.5,3.6-8.1,8.1-8.1h87.5c4.5,0,8.2,3.6,8.2,8.1h0Z"/>
          <path class="cls-4" d="M1760.7,514.7l-54.3,208.3c-1,3.6-4.1,6.2-8,6.2h-47.8c-35.2,0-61.6-21.1-69.6-48.1l-94.9-322.9c-.8-2.5-.4-5.1,1.2-7.2,1.7-2.2,4-3.3,6.7-3.3h88.4c3.9,0,7,2.5,8,6.3l52.7,227.3c.8,3.8,4.1,6.3,7.9,6.3,3.9,0,7.2-2.4,8.1-6.2l57.1-227.5c1-3.8,4.1-6.2,8-6.2h94.2c3.9,0,7,2.4,8,6.2l55.9,226.5c1,3.8,4.2,6.3,8,6.3,3.9,0,7.2-2.7,8-6.4l52.6-226.2c1-3.8,4.1-6.3,8-6.3h83c2.7,0,5,1.1,6.5,3.3,1.7,2.1,2.1,4.6,1.3,7.2l-106.7,365.1c-1.1,3.5-4.2,5.9-7.9,5.9h-46.4c-32.2,0-60-14.3-67.2-41.7l-45.1-172.7c-1-3.6-4.1-6.1-8-6.1s-6.9,2.4-7.9,6.1h0l.2-.2Z"/>
        </g>
      </g>
    </g>
  </g>
</svg>