<svg xmlns="http://www.w3.org/2000/svg" fill="none" viewBox="0 0 186 24" height="24" width="186">
<g clip-path="url(#clip0_16862_61202)">
<path fill="#02403D" d="M7.63638 11.9569C7.63638 11.6987 7.62242 11.4428 7.59684 11.1916C5.42414 9.68189 4.00281 7.16956 4.00281 4.32459C4.00281 3.24289 4.20985 2.21237 4.58437 1.26327C3.58874 0.837575 2.52333 0.544467 1.40907 0.409546C0.971735 1.63314 0.73214 2.94979 0.73214 4.32459C0.73214 8.86306 3.33286 12.7944 7.1246 14.7112C7.4526 13.8551 7.63638 12.927 7.63638 11.9569Z"></path>
<path fill="#02403D" d="M5.24098 1.57039C4.91066 2.42411 4.72688 3.35228 4.72688 4.32464C4.72688 4.58285 4.74084 4.8364 4.76411 5.08996C6.9368 6.59968 8.36044 9.11201 8.36044 11.9593C8.36044 16.5769 4.61754 20.3198 -1.52588e-05 20.3198V23.5904C6.4227 23.5904 11.6311 18.382 11.6311 11.9593C11.6334 7.41852 9.03273 3.4872 5.24098 1.57039Z"></path>
<path fill="#02403D" d="M17.2348 15.6836C16.2299 16.114 15.1575 16.4164 14.0386 16.5699C15.8252 20.699 19.9333 23.5905 24.7183 23.5905V20.3198C21.4407 20.3175 18.605 18.4286 17.2348 15.6836Z"></path>
<path fill="#02403D" d="M16.4439 10.7706C16.9859 6.95787 20.0984 3.97565 23.9692 3.63137C23.9041 2.5078 23.6808 1.42611 23.3156 0.409546C17.5651 1.10044 13.1057 5.98783 13.0871 11.9197C14.3154 11.8057 15.4552 11.3986 16.4439 10.7706Z"></path>
<path fill="#02403D" d="M20.636 5.51097C20.0591 9.56558 16.5744 12.6827 12.3616 12.6827C12.3546 12.6827 12.3476 12.6827 12.3407 12.6827C12.2755 13.8156 12.0569 14.9066 11.7079 15.9348C11.9243 15.9464 12.1429 15.9534 12.3639 15.9534C18.775 15.9534 23.9765 10.7659 23.9951 4.35716C22.7645 4.4758 21.6246 4.88289 20.636 5.51097Z"></path>
<path fill="#02403D" d="M46.8246 10.4451L43.6772 17.7727H42.128L38.9969 10.4451V17.7727H36.3985V6.12991H39.9134L42.9119 13.4924L45.9267 6.12991H49.4253V17.7727H46.8269V10.4451H46.8246Z"></path>
<path fill="#02403D" d="M63.6055 16.3652C62.3586 17.547 60.8233 18.1378 58.9996 18.1378C57.1758 18.1378 55.6405 17.547 54.3936 16.3652C53.1468 15.1835 52.5234 13.7157 52.5234 11.957C52.5234 10.2007 53.1468 8.73055 54.3936 7.54883C55.6405 6.36711 57.1758 5.77625 58.9996 5.77625C60.8233 5.77625 62.3586 6.36711 63.6055 7.54883C64.8523 8.73055 65.4758 10.1984 65.4758 11.957C65.4758 13.7133 64.8523 15.1835 63.6055 16.3652ZM62.6704 11.9663C62.6704 10.8986 62.3168 9.98904 61.6119 9.23534C60.9071 8.48165 60.0394 8.1048 59.0089 8.1048C57.9783 8.1048 57.113 8.48165 56.4058 9.23534C55.701 9.98904 55.3474 10.8986 55.3474 11.9663C55.3474 13.0341 55.701 13.9413 56.4058 14.688C57.1107 15.4347 57.9783 15.8093 59.0089 15.8093C60.0371 15.8093 60.9047 15.4347 61.6119 14.688C62.3168 13.939 62.6704 13.0317 62.6704 11.9663Z"></path>
<path fill="#02403D" d="M77.5192 7.65346C78.666 8.67002 79.2383 10.082 79.2383 11.8918C79.2383 13.7016 78.68 15.1346 77.561 16.1884C76.4421 17.2445 74.737 17.7702 72.4433 17.7702H68.3329V6.12746H72.5806C74.7277 6.12978 76.3723 6.63923 77.5192 7.65346ZM75.5512 14.574C76.2095 13.9738 76.5398 13.1038 76.5398 11.9593C76.5398 10.8148 76.2095 9.93548 75.5512 9.31903C74.8905 8.70258 73.881 8.39553 72.5155 8.39553H71.0197V15.4742H72.7225C73.9484 15.4742 74.8905 15.1741 75.5512 14.574Z"></path>
<path fill="#02403D" d="M85.4775 15.023C85.9218 15.5627 86.5196 15.8302 87.271 15.8302C88.0224 15.8302 88.6156 15.5604 89.0552 15.023C89.4925 14.4857 89.7135 13.7483 89.7135 12.8155V6.13919H92.3771V12.8992C92.3771 14.588 91.9002 15.8838 90.9441 16.7887C89.988 17.6936 88.7644 18.1448 87.2733 18.1448C85.7822 18.1448 84.5563 17.6889 83.5955 16.7793C82.6348 15.8698 82.1533 14.5764 82.1533 12.8992V6.13919H84.8168V12.8155C84.8122 13.7506 85.0332 14.4857 85.4775 15.023Z"></path>
<path fill="#02403D" d="M98.8969 8.41427C98.6433 8.62596 98.5154 8.9051 98.5154 9.25171C98.5154 9.59831 98.6712 9.87513 98.9806 10.0798C99.29 10.2845 100.009 10.5265 101.132 10.8056C102.256 11.0848 103.128 11.5035 103.749 12.0618C104.37 12.6201 104.682 13.4343 104.682 14.5067C104.682 15.579 104.284 16.4467 103.489 17.1143C102.693 17.782 101.644 18.1146 100.346 18.1146C98.4712 18.1146 96.7823 17.4144 95.2819 16.0117L96.8568 14.0623C98.1339 15.1906 99.3133 15.7535 100.397 15.7535C100.883 15.7535 101.265 15.6488 101.542 15.4371C101.819 15.2255 101.956 14.9417 101.956 14.5834C101.956 14.2252 101.809 13.9391 101.516 13.7297C101.223 13.518 100.642 13.3063 99.7715 13.0876C98.3944 12.7573 97.3848 12.327 96.7474 11.7966C96.11 11.2662 95.7914 10.4358 95.7914 9.30056C95.7914 8.16769 96.1961 7.29302 97.0033 6.67657C97.8105 6.06245 98.8178 5.75307 100.027 5.75307C100.818 5.75307 101.609 5.8903 102.398 6.16247C103.189 6.43697 103.877 6.82312 104.464 7.32558L103.126 9.27496C102.098 8.4887 101.037 8.09556 99.9413 8.09556C99.4994 8.09789 99.1527 8.20258 98.8969 8.41427Z"></path>
<path fill="#02403D" d="M119.871 15.6394C121.227 15.6394 122.336 15.1207 123.197 14.0832L124.965 15.8441C123.562 17.3702 121.906 18.1355 120.003 18.1355C118.098 18.1355 116.53 17.5539 115.297 16.3931C114.064 15.23 113.448 13.7645 113.448 11.9919C113.448 10.2193 114.076 8.74218 115.332 7.5558C116.588 6.37176 118.124 5.77856 119.94 5.77856C121.969 5.77856 123.667 6.52528 125.035 8.01872L123.318 9.8983C122.446 8.84917 121.359 8.32578 120.064 8.32578C119.026 8.32578 118.138 8.65378 117.4 9.30745C116.663 9.96344 116.295 10.8451 116.295 11.957C116.295 13.069 116.642 13.9599 117.34 14.6322C118.038 15.3045 118.882 15.6394 119.871 15.6394Z"></path>
<path fill="#02403D" d="M137.389 9.99363C137.389 11.8593 136.652 13.0642 135.175 13.6086L138.122 17.7725H134.924L132.341 14.0575H130.543V17.7725H127.945V6.12978H132.358C134.168 6.12978 135.459 6.43451 136.231 7.04631C137.003 7.65811 137.389 8.63977 137.389 9.99363ZM134.258 11.2289C134.579 10.9404 134.742 10.6287 134.742 10.0006C134.742 9.37252 134.575 8.94218 134.242 8.70955C133.909 8.47693 133.325 8.36062 132.493 8.36062H130.543V11.6615H132.441C133.33 11.6639 133.935 11.5196 134.258 11.2289Z"></path>
<path fill="#02403D" d="M149.028 6.12979V8.44437H142.952V10.8427H149.028V13.0573H142.952V15.4719H149.028V17.7702H140.353V6.12746H149.028V6.12979Z"></path>
<path fill="#02403D" d="M161.017 17.7725L159.935 15.2579H155.054L153.973 17.7725H151.207L156.236 6.12978H158.753L163.782 17.7725H161.017ZM157.504 9.59352L156.038 12.9735H158.953L157.504 9.59352Z"></path>
<path fill="#02403D" d="M170.444 8.37923V17.7725H167.846V8.37923H164.547V6.12978H173.74V8.37923H170.444Z"></path>
<path fill="#02403D" d="M185.375 6.12979V8.44437H179.299V10.8427H185.375V13.0573H179.299V15.4719H185.375V17.7702H176.7V6.12746H185.375V6.12979Z"></path>
</g>
<defs>
<clipPath id="clip0_16862_61202">
<rect transform="translate(0 0.409546)" fill="white" height="23.1809" width="185.375"></rect>
</clipPath>
</defs>
</svg>
