<svg width="800" height="215" viewBox="0 0 800 215" fill="none" xmlns="http://www.w3.org/2000/svg">
<path d="M331.722 52.1471C331.722 47.0202 330.982 41.4271 329.515 35.368C328.035 29.3089 325.279 23.7158 321.235 18.5889C317.191 13.4619 311.447 9.18488 303.99 5.77148C296.533 2.35809 286.896 0.644531 275.093 0.644531H201.685V167.037H230.815V103.184H275.093C286.896 103.184 296.533 101.511 303.99 98.18C311.447 94.8352 317.191 90.613 321.235 85.4723C325.279 80.3453 328.035 74.7934 329.515 68.8166C330.996 62.8397 331.722 57.2741 331.722 52.1471ZM299.919 65.0879C298.137 68.5835 295.806 71.38 292.927 73.4774C290.049 75.5748 286.909 77.0827 283.482 78.0149C280.069 78.9471 276.724 79.4132 273.462 79.4132H230.815V24.4149H273.928C277.807 24.4149 281.467 24.7988 284.881 25.5802C288.294 26.3615 291.324 27.7872 293.969 29.8983C296.615 31.9957 298.712 34.8334 300.261 38.4113C301.811 41.9892 302.592 46.4855 302.592 51.9278C302.592 57.37 301.701 61.6059 299.919 65.0879Z" fill="white"/>
<path d="M431.122 61.2358C425.912 55.6427 419.552 51.2561 412.012 48.0757C404.472 44.8953 395.891 43.3052 386.268 43.3052C376.644 43.3052 368.049 44.8953 360.51 48.0757C352.97 51.2561 346.609 55.6565 341.4 61.2358C336.191 66.8288 332.229 73.5048 329.515 81.2775C326.801 89.0502 325.43 97.5083 325.43 106.679C325.43 115.85 326.787 124.541 329.515 132.314C332.229 140.087 336.191 146.763 341.4 152.356C346.609 157.949 352.97 162.335 360.51 165.516C368.049 168.696 376.631 170.286 386.268 170.286C395.905 170.286 404.486 168.696 412.012 165.516C419.552 162.335 425.912 157.949 431.122 152.356C436.331 146.763 440.292 140.087 443.007 132.314C445.721 124.541 447.092 116.001 447.092 106.679C447.092 97.3575 445.735 89.0502 443.007 81.2775C440.292 73.5048 436.331 66.8288 431.122 61.2358ZM418.537 122.183C417.221 127.228 415.151 131.779 412.355 135.823C409.558 139.867 405.98 143.13 401.635 145.611C397.289 148.092 392.162 149.34 386.254 149.34C380.346 149.34 375.219 148.092 370.873 145.611C366.528 143.13 362.95 139.867 360.153 135.823C357.357 131.779 355.301 127.242 353.971 122.183C352.655 117.139 351.997 111.971 351.997 106.693C351.997 101.415 352.655 96.439 353.971 91.3121C355.287 86.1851 357.357 81.6339 360.153 77.6859C362.95 73.7242 366.528 70.5027 370.873 68.0078C375.219 65.5265 380.346 64.2791 386.254 64.2791C392.162 64.2791 397.289 65.5265 401.635 68.0078C405.98 70.489 409.558 73.7242 412.355 77.6859C415.151 81.6476 417.208 86.1851 418.537 91.3121C419.853 96.439 420.511 101.566 420.511 106.693C420.511 111.82 419.853 117.139 418.537 122.183Z" fill="white"/>
<path d="M657.858 116.467C657.858 121.128 657.351 125.474 656.35 129.517C655.336 133.561 653.663 137.016 651.346 139.881C649.016 142.76 645.987 145.049 642.258 146.763C638.529 148.476 633.868 149.326 628.275 149.326C620.969 149.326 615.307 147.147 611.263 142.801C607.219 138.455 605.204 130.998 605.204 120.429V46.5541H578.637V122.992C578.637 138.839 582.174 150.683 589.234 158.525C596.307 166.366 607.768 170.286 623.601 170.286C630.277 170.286 636.843 168.463 643.3 164.803C649.743 161.157 653.663 157.976 657.858 152.219H658.324V167.024H684.425V46.5541H657.858V116.467Z" fill="white"/>
<path d="M788.581 53.5454C780.973 46.7049 770.554 43.2915 757.353 43.2915C749.43 43.2915 742.206 45.1969 735.68 49.0079C729.155 52.8188 725.098 56.1774 719.833 62.7711L719.367 62.3051V46.5678H694.199V167.051H720.766V95.973C720.766 91.6274 721.465 87.5011 722.863 83.6217C724.261 79.7422 726.208 76.3562 728.689 73.4774C731.17 70.5986 734.2 68.3505 737.778 66.7192C741.356 65.0879 745.386 64.2654 749.896 64.2654C757.819 64.2654 763.645 66.4039 767.374 70.6809C771.103 74.9579 773.118 81.8259 773.433 91.2984V167.037H800V84.3071C800 70.6398 796.189 60.3859 788.581 53.5454Z" fill="white"/>
<path d="M544.709 61.1261H544.243C540.514 54.6146 535.936 51.2561 529.561 48.062C523.187 44.8816 514.222 43.2915 506.614 43.2915C498.073 43.2915 489.437 44.9228 482.665 48.1854C475.907 51.448 470.204 55.8347 465.543 61.3455C460.882 66.8562 457.305 73.2718 454.823 80.5784C452.342 87.885 451.095 95.5754 451.095 103.65C451.095 112.355 452.109 120.511 454.124 128.119C456.139 135.727 459.361 142.458 463.789 148.284C468.216 154.11 473.809 158.689 480.568 162.034C487.326 165.379 496.51 168.024 506.147 168.024C513.605 168.024 523.516 166.16 529.959 162.431C536.402 158.703 539.555 156.194 544.243 149.779H544.709V164.241C544.709 174.18 542.228 181.801 537.252 187.079C532.276 192.357 522.46 195.003 511.74 195.003C508.327 195.003 505.064 194.811 501.953 194.427C498.841 194.043 496.017 193.179 493.44 191.863C490.876 190.547 488.669 188.724 486.791 186.38C484.927 184.05 483.611 181.02 482.829 177.291H456.263C456.88 184.283 458.908 190.191 462.322 195.003C465.735 199.814 469.971 203.708 475.016 206.655C480.06 209.602 485.653 211.7 491.795 212.947C497.936 214.194 504.023 214.811 510.082 214.811C529.191 214.811 545.806 210.342 555.991 201.418C566.163 192.48 571.248 178.923 571.248 160.745V46.5541H544.682V61.1261H544.709ZM541.323 122.019C540.007 127.064 537.937 131.615 535.141 135.659C532.344 139.703 528.766 142.965 524.421 145.447C520.075 147.928 514.948 149.175 509.04 149.175C503.132 149.175 498.005 147.928 493.659 145.447C489.314 142.965 485.736 139.703 482.939 135.659C480.143 131.615 478.086 127.077 476.757 122.019C475.441 116.974 474.783 111.806 474.783 106.528C474.783 101.251 475.441 96.2745 476.757 91.1476C478.073 86.0206 480.143 81.4694 482.939 77.5214C485.736 73.5597 489.314 70.3382 493.659 67.8433C498.005 65.362 503.132 64.1146 509.04 64.1146C514.948 64.1146 520.075 65.362 524.421 67.8433C528.766 70.3245 532.344 73.5597 535.141 77.5214C537.937 81.4831 539.993 86.0206 541.323 91.1476C542.639 96.2745 543.297 101.401 543.297 106.528C543.297 111.655 542.639 116.974 541.323 122.019Z" fill="white"/>
<path d="M89.0632 88.2138L86.7191 91.2296L103.43 153.315L103.567 153.836L127.789 167.832L115.781 123.225C111.655 107.913 101.757 95.6849 89.0632 88.2138Z" fill="#E6E4C4"/>
<path d="M44.4151 82.1409L18.9312 89.0089L43.195 102.923L86.7191 91.2296L89.0632 88.2138C76.054 80.5645 60.1112 77.9187 44.4151 82.1409Z" fill="#FFFEEF"/>
<path d="M111.956 74.5328C111.956 90.0918 118.029 104.691 129.023 115.685L147.694 134.343L147.639 106.377L115.767 74.5191L111.956 74.5328Z" fill="#FFFEEF"/>
<path d="M161.635 0.671804L128.982 33.3527C117.988 44.3605 111.956 58.9737 111.956 74.5328L115.767 74.5191L161.608 28.6507L161.635 0.671804Z" fill="#E6E4C4"/>
<path d="M115.863 25.5115L122.635 9.15527e-05L98.4671 14.0786L86.8973 57.6303L88.6657 60.9751C101.62 53.504 111.723 41.0842 115.863 25.5115Z" fill="#FFFEEF"/>
<path d="M59.5765 68.8027C69.94 68.8027 79.9471 66.0061 88.6657 60.9751L86.8973 57.6303L24.2227 40.9883L0 54.9846L44.6481 66.8423C49.638 68.1721 54.6415 68.8027 59.5765 68.8027Z" fill="#E6E4C4"/>
</svg>
