<svg width="346" height="112" viewBox="0 0 346 112" fill="none" xmlns="http://www.w3.org/2000/svg">
<g clip-path="url(#clip0_2853_9581)">
<path d="M49.5879 100.015C24.6561 100.015 4.37891 80.2696 4.37891 56.0001C4.37891 31.7307 24.6561 11.9854 49.5879 11.9854C74.5196 11.9854 94.8045 31.7307 94.8045 56.0001C94.8045 80.2696 74.5196 100.015 49.5879 100.015ZM49.5879 13.7797C25.6469 13.7797 6.16852 32.7198 6.16852 56.0078C6.16852 79.2958 25.6469 98.2359 49.5879 98.2359C73.5288 98.2359 93.0072 79.2958 93.0072 56.0078C93.0072 32.7198 73.5288 13.7797 49.5879 13.7797Z" fill="white"/>
<path d="M49.587 99.6699C36.3607 99.6699 23.9256 95.1381 14.5627 86.9179C5.16915 78.667 0 67.6863 0 56.0002C0 44.314 5.16915 33.3333 14.5627 25.0825C23.9256 16.8623 36.3607 12.3304 49.587 12.3304C62.8132 12.3304 75.2484 16.8623 84.6112 25.0825C94.0048 33.3333 99.174 44.314 99.174 56.0002C99.174 67.6863 93.9971 78.667 84.6112 86.9179C75.2484 95.1381 62.8132 99.6699 49.587 99.6699ZM49.587 14.1248C23.2343 14.1248 1.7973 32.9116 1.7973 56.0002C1.7973 79.0888 23.2343 97.8756 49.587 97.8756C75.9397 97.8756 97.3767 79.0888 97.3767 56.0002C97.3767 32.9116 75.9397 14.1248 49.587 14.1248Z" fill="white"/>
<path d="M50.6623 0H48.5117V112H50.6623V0Z" fill="white"/>
<path d="M49.5848 99.708C27.0725 99.708 8.75391 80.1007 8.75391 55.9999C8.75391 31.8992 27.0725 12.2919 49.5848 12.2919C72.0971 12.2919 90.4234 31.8992 90.4234 55.9999C90.4234 80.1007 72.1048 99.708 49.5848 99.708ZM49.5848 14.0785C28.0557 14.0785 10.5435 32.8883 10.5435 55.9999C10.5435 79.1115 28.0557 97.9213 49.5848 97.9213C71.114 97.9213 88.6261 79.1115 88.6261 55.9999C88.6261 32.8883 71.114 14.0785 49.5848 14.0785Z" fill="white"/>
<path d="M121.617 85.4724V83.2947C126.832 83.2947 128.63 82.8193 128.63 78.2797V35.3232C128.63 30.7837 126.825 30.3082 121.617 30.3082V28.1305H145.504C158.3 28.1305 168.815 32.9537 168.815 42.7919C168.815 50.1686 162.563 54.8078 154.982 56.7938C159.153 58.4961 162.279 62.0004 164.745 66.3482L170.812 75.9947C174.038 81.485 175.459 83.3714 180.291 83.3714V85.4494H164.176L156.119 71.7312C151.472 63.0279 148.73 58.7722 144.176 58.013H139.245V78.2644C139.245 82.8039 141.05 83.2793 146.165 83.2793V85.4571H121.617V85.4724ZM139.252 30.7837V55.6666H143.331C151.288 55.6666 158.208 52.6377 158.208 42.8916C158.208 33.8049 151.672 30.7837 143.331 30.7837H139.252Z" fill="white"/>
<path d="M197.631 86.4153C186.448 86.4153 177.254 77.8961 177.254 65.6962C177.254 53.4963 186.732 43.8422 196.586 43.8422C207.485 43.8422 212.701 52.4534 212.701 60.3055H186.824V61.3484C186.824 72.7968 193.268 81.1244 202.462 81.1244C206.441 81.1244 209.567 79.6138 212.132 76.2015L213.361 77.3363C209.667 83.2944 203.691 86.423 197.631 86.423M187.016 57.9361H203.983C203.699 51.2189 201.325 46.3956 196.31 46.3956C191.294 46.3956 187.777 50.3677 187.024 57.9361" fill="white"/>
<path d="M230.422 49.0411C226.059 49.0411 222.365 51.978 220.091 57.2766L218.194 56.5175C220.659 49.2328 226.819 43.8422 234.969 43.8422C243.878 43.8422 249.37 49.4245 249.37 58.4115V78.0878C249.37 80.7333 250.791 82.0599 252.404 82.0599C253.825 82.0599 254.585 81.4924 255.814 80.0739L256.951 81.3007C255.246 84.0459 252.212 86.4077 248.233 86.4077C244.255 86.4077 240.652 84.1379 239.416 79.7825C237.042 83.1871 232.687 86.4077 227.472 86.4077C222.257 86.4077 217.426 83.0031 217.426 77.137C217.426 71.2709 222.541 68.15 230.03 65.3128L239.316 61.8085V59.0633C239.316 53.573 236.658 49.0335 230.406 49.0335M232.879 66.7314C229.277 68.242 226.627 70.3277 226.627 74.7752C226.627 78.7473 229.185 81.4924 232.879 81.4924C235.153 81.4924 237.426 80.2579 239.324 78.1798V64.362L232.879 66.7314Z" fill="white"/>
<path d="M256.191 30.1165V28.1305H272.49V78.3718C272.49 83.011 273.435 83.4787 277.605 83.4787V85.4647H257.136V83.4787C261.399 83.4787 262.351 83.0033 262.351 78.3718V35.2311C262.351 30.5919 261.215 30.1242 256.191 30.1242" fill="white"/>
<path d="M279.848 85.4724V83.2947C285.063 83.2947 286.86 82.8193 286.86 78.2797V35.3232C286.86 30.7837 285.063 30.3082 279.848 30.3082V28.1305H322.775L322.967 42.4161H321.354C320.026 32.0105 316.807 30.776 305.34 30.776H297.475V54.524H305.532C313.113 54.524 313.497 53.2971 314.25 47.4234H315.955V64.2625H314.25C313.489 58.3964 313.113 57.1619 305.532 57.1619H297.475V78.1647C297.475 82.3285 298.612 83.2717 306.293 83.2717V85.4494H279.848V85.4724Z" fill="white"/>
<path d="M325.43 46.7715V44.7854H340.784V78.3716C340.784 83.0108 341.728 83.4786 345.999 83.4786V85.4646H325.437V83.4786C329.7 83.4786 330.653 83.0032 330.653 78.3716V51.8784C330.653 47.2392 329.708 46.7715 325.437 46.7715M335.468 25.5769C338.694 25.5769 341.344 28.0384 341.344 31.351C341.344 34.6636 338.687 37.125 335.468 37.125C332.25 37.125 329.5 34.5716 329.5 31.351C329.5 28.1304 332.25 25.5769 335.468 25.5769Z" fill="white"/>
</g>
<defs>
<clipPath id="clip0_2853_9581">
<rect width="346" height="112" fill="white"/>
</clipPath>
</defs>
</svg>
