<svg xmlns="http://www.w3.org/2000/svg" width="156" height="43" fill="none">
  <path fill="#032327" d="M0 41.713v-1.5167c3.6175 0 4.8642-.3311 4.8642-3.4925V6.7876C4.8642 3.626 3.6122 3.295 0 3.295V1.7784h16.5691c8.876 0 16.1696 3.359 16.1696 10.2106 0 5.1374-4.3368 8.3682-9.5952 9.7513 2.8929 1.1856 5.0613 3.6261 6.7715 6.654l4.2089 6.7181c2.2376 3.8236 3.2232 5.1373 6.5744 5.1373v1.4472H29.5208l-5.5888-9.5537c-3.2233-6.0612-5.1252-9.0251-8.2846-9.5537h-3.4203v14.1036c0 3.1614 1.252 3.4925 4.8002 3.4925v1.5167H0v.0107ZM12.2324 3.6262v17.3291h2.829c5.5195 0 10.3197-2.1094 10.3197-8.8969 0-6.3282-4.5338-8.4322-10.3197-8.4322h-2.829Z"/>
  <path fill="#032327" d="M52.7242 42.3697c-7.7571 0-14.1344-5.933-14.1344-14.4294s6.5744-15.2198 13.4099-15.2198c7.5599 0 11.1775 5.9971 11.1775 11.4656h-17.949v.7263c0 7.973 4.4699 13.7725 10.8471 13.7725 2.7598 0 4.9282-1.052 6.7076-3.4284l.8524.7903c-2.5626 4.1494-6.7075 6.3282-10.9111 6.3282m-7.3629-19.8391h11.7689c-.1971-4.678-1.8434-8.0371-5.3223-8.0371-3.479 0-5.9191 2.7663-6.4412 8.0371M75.4715 16.3412c-3.0261 0-5.5888 2.0453-7.1658 5.7355l-1.3159-.5287c1.7102-5.0733 5.983-8.8275 11.6357-8.8275 6.1801 0 9.9894 3.8877 9.9894 10.1465v13.7032c0 1.8424.9856 2.7662 2.1045 2.7662.9856 0 1.513-.3952 2.3655-1.3831l.7885.8544c-1.1828 1.9119-3.2872 3.5567-6.047 3.5567-2.7597 0-5.2584-1.5808-6.1162-4.614-1.6462 2.3711-4.667 4.614-8.2845 4.614-3.6175 0-6.9687-2.3711-6.9687-6.4564s3.5483-6.2588 8.7428-8.2347l6.4412-2.4405V23.321c0-3.8237-1.8434-6.9851-6.1802-6.9851m1.7156 12.3253c-2.4987 1.0521-4.3368 2.5046-4.3368 5.602 0 2.7662 1.7741 4.678 4.3368 4.678 1.577 0 3.154-.8597 4.4699-2.3069v-9.6232l-4.4699 1.6501ZM93.3477 3.1615v-1.383h11.3053v34.9894c0 3.2308.655 3.5566 3.548 3.5566v1.3831H94.003v-1.3831c2.9568 0 3.6175-.3311 3.6175-3.5566V6.7235c0-3.2309-.7885-3.5566-4.2728-3.5566M109.754 41.713v-1.5167c3.617 0 4.864-.3311 4.864-3.4925V6.7876c0-3.1615-1.247-3.4926-4.864-3.4926V1.7784h29.776l.134 9.9489h-1.119c-.922-7.2467-3.154-8.1065-11.108-8.1065h-5.456v16.5388h5.589c5.258 0 5.525-.8544 6.047-4.9451h1.182v11.7273h-1.182c-.528-4.0853-.789-4.9451-6.047-4.9451h-5.589v14.627c0 2.8997.788 3.5566 6.116 3.5566v1.5166h-18.343v.0161ZM141.371 14.7605v-1.3831h10.65v23.3904c0 3.2308.655 3.5566 3.618 3.5566v1.3831h-14.263v-1.3831c2.957 0 3.618-.3311 3.618-3.5566V18.3171c0-3.2308-.655-3.5566-3.618-3.5566M148.334 0c2.238 0 4.076 1.7142 4.076 4.0212 0 2.307-1.843 4.0213-4.076 4.0213-2.232 0-4.139-1.7784-4.139-4.0213S146.102 0 148.334 0Z"/>
</svg>
