<svg xmlns="http://www.w3.org/2000/svg" width="356" height="51" fill="none" viewBox="0 0 356 51"><path fill="#fff" d="M93.115 20.697h7.932V37h5.751V20.697h7.099V15H97.378zM129.359 15h-12.625v22h5.718v-5.017h6.168L131.469 37h6.12l-3.283-5.64c3.019-1.184 4.24-3.926 4.24-7.51v-.592c0-5.33-2.763-8.258-9.187-8.258m-6.906 11.748v-6.45h6.425c2.506 0 3.919.342 3.919 2.99v.5c0 2.648-1.51 2.96-3.919 2.96zM146.688 15h-5.686v22h5.686zm25.084 0h-6.571l-5.988 8.694h-3.529V15h-6.042v22h6.042v-8.507h3.529L164.9 37h6.871l-7.534-11.031L171.771 15zm17.303 5.297L192.97 15h-19.178v22h15.477l4.037-5.297h-13.828v-3.366h8.577V23.54h-8.577v-3.242zm161.771 0L354.74 15h-19.178v22h15.478l4.036-5.297h-13.828v-3.366h8.577V23.54h-8.577v-3.242zM203.827 36.936V15.077h21.008l-3.904 5.793H209.32v3.22h13.601l-3.268 5.241H209.32v7.603h-5.493m23.126.002V15.077h5.493v21.857zm8.596 0V15.077h5.463l10.269 13.405V15.078h5.523v21.857h-5.424l-10.308-13.343v13.343zm51.262 0V15.077h5.464l10.269 13.405V15.078h5.523v21.857h-5.425l-10.307-13.343v13.343zm-8.124.064-1.712-3.47h-10.644l-1.508 3.465-5.981.005 9.54-21.922h6.971L284.747 37zm-3.544-7.929-3.475-8.359-3.475 8.36zm35.965.263v-6.78c0-4.458 2.389-7.554 7.354-7.554h6.92c8.227 0 7.369 7.922 7.369 7.922l-5.538-.027v-.526c0-1.889-.652-2.106-1.83-2.106h-6.92c-1.18 0-1.831.217-1.831 2.106v7.15c0 1.858.745 2.076 1.831 2.076h6.92c1.086 0 1.83-.217 1.83-2.075v-1.393h5.524c.014 7.243-2.39 8.73-7.355 8.73h-6.92c-4.964 0-7.354-3.096-7.354-7.523"/><path fill="#fff" d="M87.623 23.736v-.006h-.529v-.002H75.337c-.766 0-1.386-.658-1.386-1.47s.62-1.469 1.386-1.469h14.338l4.34-5.788H74.758c-3.389.086-6.11 3.023-6.11 6.63 0 3.608 2.721 6.547 6.11 6.634v.006h.529v.002h11.757c.766 0 1.387.659 1.387 1.47 0 .813-.62 1.469-1.387 1.469H71.34L67 37h20.622c3.39-.086 6.11-3.023 6.11-6.63 0-3.608-2.72-6.547-6.11-6.634"/><path fill="#26fab0" d="M25.5 51C39.583 51 51 39.583 51 25.5S39.583 0 25.5 0 0 11.417 0 25.5 11.417 51 25.5 51"/><path fill="#000" d="M37.164 26.14a6.778 6.778 0 0 1-4.702 11.492h-5.73l-3.075 3.389-6.082 6.698 1.95-8.834.276-1.253h-9.66l4.697-5.914h8.732l-1.304 5.914-.391 1.772 1.608-1.772 5.368-5.914 2.726-3.002H19.109v-.002h-.571v-.006a6.76 6.76 0 0 1-4.703-2.059 6.778 6.778 0 0 1 4.702-11.492h5.73l3.076-3.388 6.081-6.699-1.948 8.834-.277 1.254h9.66l-4.697 5.913H27.43l1.304-5.914.391-1.771-1.608 1.772-5.368 5.913-2.726 3.003H31.89v.002h.571v.006a6.76 6.76 0 0 1 4.702 2.059"/></svg>