<svg viewBox="105 55 528 102" width="1600" fill="none" xmlns="http://www.w3.org/2000/svg">
  <path d="m148.995 82.8-20.942 28.542L108 82.799V61.137l19.843 28.401 21.114-28.401 21.113 28.401 19.843-28.401v21.662l-20.053 28.543zm64.148-21.663v49.137h-13.449V61.137zm23.264 22.834v26.2h-13.485V61.145l40.231 27.729V61.137h13.563v50.205zm79.969 27.371c-18.686 0-32.325-12.148-32.325-26.167S296.849 59 317.217 59c8.334 0 14.987 1.422 23.073 5.147v11.335c-10.514-4.326-16.086-5.925-22.939-5.925-11.537 0-20.072 7.534-20.072 15.584 0 7.83 7.646 15.585 19.861 15.585 3.58.004 7.145-.397 10.61-1.193v-7.62h-16.918V81.705h29.458v24.965c-7.487 3.096-15.652 4.692-23.914 4.673m54.832-50.206c16.151 0 27.2 7.975 27.2 17.88 0 6.347-4.608 11.966-12.218 15.212l13.14 17.141 2.09 14.927-13.643-9.057-15.315-20.236h-7.943v13.662h-13.225V61.187zm1.672 25.334c7.866 0 12.351-3.103 12.351-7.455 0-4.512-4.437-7.388-12.351-7.388h-8.361V86.47zm46.879-25.334v49.137h-13.448V61.137zm27.014 0c20.491 0 32.891 12.765 32.891 24.573s-12.448 24.564-32.891 24.564h-17.235V61.145zm0 38.729c13.406 0 20.108-7.561 20.108-14.156s-6.578-14.156-20.108-14.156h-3.878v28.311zm78.129-38.729-2.475 10.417h-22.382v8.802h19.897v10.416h-19.897v9.093h24.857v10.409h-37.9V61.145zm29.738 0c16.157 0 27.201 7.975 27.201 17.88 0 6.347-4.6 11.966-12.222 15.212l13.097 17.141 2.091 14.927-13.639-9.057-15.321-20.236h-7.955v13.662h-13.211V61.187zm1.673 25.334c7.869 0 12.308-3.103 12.308-7.455 0-4.512-4.439-7.388-12.308-7.388h-8.421V86.47zm51.143 2.582c-7.802-2.913-17.711-6.561-17.711-15.958 0-7.678 7.206-14.095 18.134-14.095 7.456 0 14.315 2.311 20.414 5.147v11.335c-4.992-2.387-14.228-6.34-19.99-6.34-3.473 0-5.166 1.642-5.166 3.953 0 3.58 5.416 4.995 11.178 7.23 6.734 2.683 16.951 6.636 16.951 15.66 0 8.652-9.072 15.357-20.597 15.357-8.552 0-15.498-2.76-22.193-7.153V92.185c5.079 3.276 14.064 9.015 21.943 9.015 4.743 0 7.456-2.31 7.456-5.079 0-2.895-3.3-4.461-10.419-7.068M180.279 133.04H162.19v2.196h7.54v17.434h2.856v-17.434h7.35zm22.78 8.717h-13.213v-8.717h-2.856v19.63h2.856v-8.717h13.213v8.717h2.857v-19.63h-2.857zm15.64 2.196h9.559v-2.196h-9.559v-6.521h12.567l-.343-2.196h-15.041v19.63h15.384l.343-2.196h-12.91zm39.789-11.08c-2.019 0-3.961.1-6.131.4v19.231a45 45 0 0 0 5.598.333c9.101 0 14.127-4.359 14.127-10.514 0-5.457-4.531-9.45-13.594-9.45m-.495 17.768c-.952 0-1.866-.034-2.78-.133v-15.306a36 36 0 0 1 3.275-.133c7.083 0 10.738 2.795 10.738 7.586 0 4.925-4.036 7.986-11.233 7.986m25.33-6.688h9.558v-2.196h-9.558v-6.521h12.566l-.342-2.196h-15.042v19.63h15.384l.343-2.196h-12.909zm30.496-1.231 8.682-9.682h-3.389l-6.931 7.918-6.93-7.918h-3.542l8.606 9.715-8.758 9.915h3.389l7.045-8.118 7.121 8.118h3.579zm38.041 10.281c6.817 0 11.691-4.392 11.691-10.481 0-5.689-4.646-9.815-11.081-9.815-6.779 0-11.691 4.392-11.691 10.481 0 5.689 4.646 9.815 11.081 9.815m.115-2.196c-4.875 0-8.34-3.327-8.34-7.919 0-4.625 3.694-7.985 8.72-7.985 4.875 0 8.34 3.327 8.34 7.919 0 4.625-3.694 7.985-8.72 7.985m36.907-1.93L374.83 133.04h-2.818v19.63h2.818v-15.837l14.052 15.837h2.856v-19.63h-2.856zm35.08 4.126c2.932 0 5.979-.732 7.845-2.163l-.952-1.896c-1.524 1.098-3.885 1.863-6.474 1.863-5.179 0-8.797-2.895-8.797-7.752 0-4.725 3.199-8.152 8.911-8.152 2.209 0 4.379.366 6.169 1.198v-2.263c-1.675-.698-3.808-1.131-5.864-1.131-7.883 0-12.072 4.758-12.072 10.481 0 5.756 4.38 9.815 11.234 9.815m34.816-.333-9.939-19.63h-2.856l-10.015 19.63h3.009l2.323-4.625h12.109l2.285 4.625zm-11.386-16.769 4.913 9.948h-9.901zm35.992 16.769-6.284-7.652c2.133-1.364 3.923-3.328 3.923-5.956 0-3.227-2.552-6.189-9.216-6.189-2.208 0-4.151.067-6.131.333v19.464h2.856v-6.821h5.75l5.598 6.821zm-14.852-17.501c1.219-.066 2.171-.1 3.466-.1 3.96 0 6.169 1.564 6.169 4.159 0 1.93-1.409 3.494-3.58 4.426h-6.055zm28.374-2.296c-2.018 0-3.96.1-6.131.4v19.231a45 45 0 0 0 5.598.333c9.101 0 14.128-4.359 14.128-10.514 0-5.457-4.532-9.45-13.595-9.45m-.495 17.768c-.952 0-1.866-.034-2.78-.133v-15.306a36 36 0 0 1 3.275-.133c7.083 0 10.739 2.795 10.739 7.586 0 4.925-4.037 7.986-11.234 7.986m41.94 2.029-9.939-19.63h-2.856l-10.015 19.63h3.009l2.322-4.625h12.11l2.285 4.625zm-11.386-16.769 4.913 9.948h-9.901zm35.154 12.976-14.052-15.837h-2.818v19.63h2.818v-15.837l14.052 15.837h2.856v-19.63h-2.856zm22.398 4.126c6.817 0 11.691-4.392 11.691-10.481 0-5.689-4.646-9.815-11.081-9.815-6.779 0-11.691 4.392-11.691 10.481 0 5.689 4.646 9.815 11.081 9.815m.115-2.196c-4.875 0-8.34-3.327-8.34-7.919 0-4.625 3.694-7.985 8.72-7.985 4.875 0 8.34 3.327 8.34 7.919 0 4.625-3.694 7.985-8.72 7.985" fill="#FFFFFF"/>
</svg>
